<mxfile host="Electron" modified="2024-03-29T23:20:46.722Z" agent="Mozilla/5.0 (Windows NT 10.0; Win64; x64) AppleWebKit/537.36 (KHTML, like Gecko) draw.io/24.1.0 Chrome/120.0.6099.109 Electron/28.1.0 Safari/537.36" etag="8JFN6kqa_jQAKoi4xYnk" version="24.1.0" type="device">
  <diagram name="ページ1" id="LE8fIzdrHe0wcv1LTvfw">
    <mxGraphModel dx="866" dy="518" grid="1" gridSize="10" guides="1" tooltips="1" connect="1" arrows="1" fold="1" page="1" pageScale="1" pageWidth="1600" pageHeight="1200" math="0" shadow="0">
      <root>
        <mxCell id="0" />
        <mxCell id="cFaB45KztUIKXS-_cTrr-4" value="背景" style="locked=1;" parent="0" visible="0" />
        <mxCell id="cFaB45KztUIKXS-_cTrr-5" value="" style="rounded=0;whiteSpace=wrap;html=1;strokeWidth=3;" parent="cFaB45KztUIKXS-_cTrr-4" vertex="1">
          <mxGeometry x="1" y="1" width="1595" height="1180" as="geometry" />
        </mxCell>
        <mxCell id="cFaB45KztUIKXS-_cTrr-6" value="" style="rounded=0;whiteSpace=wrap;html=1;fillColor=#B3B3B3;fontColor=#333333;strokeColor=#666666;" parent="cFaB45KztUIKXS-_cTrr-4" vertex="1">
          <mxGeometry width="1595" height="60" as="geometry" />
        </mxCell>
        <mxCell id="cFaB45KztUIKXS-_cTrr-7" value="&lt;font style=&quot;font-size: 48px;&quot;&gt;×&lt;/font&gt;" style="rounded=0;whiteSpace=wrap;html=1;" parent="cFaB45KztUIKXS-_cTrr-4" vertex="1">
          <mxGeometry x="1550" y="10" width="40" height="40" as="geometry" />
        </mxCell>
        <mxCell id="cFaB45KztUIKXS-_cTrr-8" value="" style="rounded=0;whiteSpace=wrap;html=1;" parent="cFaB45KztUIKXS-_cTrr-4" vertex="1">
          <mxGeometry x="830" y="670" width="120" height="60" as="geometry" />
        </mxCell>
        <mxCell id="cFaB45KztUIKXS-_cTrr-9" value="ウインドウ" style="locked=1;" parent="0" />
        <mxCell id="cFaB45KztUIKXS-_cTrr-10" value="" style="rounded=0;whiteSpace=wrap;html=1;strokeWidth=3;" parent="cFaB45KztUIKXS-_cTrr-9" vertex="1">
          <mxGeometry x="1" y="1" width="2149" height="5559" as="geometry" />
        </mxCell>
        <mxCell id="u-wRjW6bjuOSrpnArjSF-0" value="" style="line;strokeWidth=2;direction=south;html=1;dashed=1;dashPattern=12 12;" parent="cFaB45KztUIKXS-_cTrr-9" vertex="1">
          <mxGeometry x="1540" y="10" width="10" height="5520" as="geometry" />
        </mxCell>
        <mxCell id="cFaB45KztUIKXS-_cTrr-11" value="" style="rounded=0;whiteSpace=wrap;html=1;fillColor=#B3B3B3;fontColor=#333333;strokeColor=#666666;" parent="cFaB45KztUIKXS-_cTrr-9" vertex="1">
          <mxGeometry width="1595" height="60" as="geometry" />
        </mxCell>
        <mxCell id="cFaB45KztUIKXS-_cTrr-12" value="&lt;font style=&quot;font-size: 48px;&quot;&gt;×&lt;/font&gt;" style="rounded=0;whiteSpace=wrap;html=1;" parent="cFaB45KztUIKXS-_cTrr-9" vertex="1">
          <mxGeometry x="1550" y="10" width="40" height="40" as="geometry" />
        </mxCell>
        <mxCell id="cFaB45KztUIKXS-_cTrr-14" value="名称未設定レイヤ" style="" parent="0" />
        <mxCell id="5l2hKBXCzOEWmYN1dR5e-1" value="&lt;span style=&quot;font-size: 30px;&quot;&gt;保存&lt;/span&gt;" style="rounded=1;whiteSpace=wrap;html=1;" parent="cFaB45KztUIKXS-_cTrr-14" vertex="1">
          <mxGeometry x="1303" y="5439" width="210" height="60" as="geometry" />
        </mxCell>
        <mxCell id="5l2hKBXCzOEWmYN1dR5e-2" value="&lt;span style=&quot;font-size: 30px;&quot;&gt;閉じる&lt;/span&gt;" style="rounded=1;whiteSpace=wrap;html=1;" parent="cFaB45KztUIKXS-_cTrr-14" vertex="1">
          <mxGeometry x="1053" y="5439" width="210" height="60" as="geometry" />
        </mxCell>
        <mxCell id="OfYwudYAJOJ5Hr9kt4Nj-0" value="&lt;span style=&quot;font-size: 30px;&quot;&gt;政治団体名称&lt;/span&gt;" style="rounded=0;whiteSpace=wrap;html=1;align=right;dashed=1;dashPattern=8 8;verticalAlign=bottom;" parent="cFaB45KztUIKXS-_cTrr-14" vertex="1">
          <mxGeometry x="27" y="221" width="310" height="46" as="geometry" />
        </mxCell>
        <mxCell id="OfYwudYAJOJ5Hr9kt4Nj-1" value="&lt;font style=&quot;font-size: 30px;&quot;&gt;ランダム政治団体&lt;/font&gt;&lt;span style=&quot;font-size: 30px;&quot;&gt;&lt;br&gt;&lt;/span&gt;" style="rounded=0;whiteSpace=wrap;html=1;align=left;" parent="cFaB45KztUIKXS-_cTrr-14" vertex="1">
          <mxGeometry x="360" y="221" width="650" height="48" as="geometry" />
        </mxCell>
        <mxCell id="OfYwudYAJOJ5Hr9kt4Nj-2" value="&lt;span style=&quot;font-size: 30px;&quot;&gt;政治団体設立届と資金管理団体届&lt;/span&gt;&lt;span style=&quot;font-size: 30px; background-color: initial;&quot;&gt;編集&lt;/span&gt;" style="rounded=0;whiteSpace=wrap;html=1;align=left;dashed=1;dashPattern=8 8;verticalAlign=bottom;fontStyle=1" parent="cFaB45KztUIKXS-_cTrr-14" vertex="1">
          <mxGeometry x="30" y="76" width="570" height="46" as="geometry" />
        </mxCell>
        <mxCell id="OfYwudYAJOJ5Hr9kt4Nj-3" value="&lt;span style=&quot;font-size: 30px;&quot;&gt;政治団体名称かな&lt;/span&gt;" style="rounded=0;whiteSpace=wrap;html=1;align=right;dashed=1;dashPattern=8 8;verticalAlign=bottom;" parent="cFaB45KztUIKXS-_cTrr-14" vertex="1">
          <mxGeometry x="27" y="291" width="310" height="46" as="geometry" />
        </mxCell>
        <mxCell id="OfYwudYAJOJ5Hr9kt4Nj-4" value="&lt;font style=&quot;font-size: 30px;&quot;&gt;らんだむせいじだんたい&lt;/font&gt;&lt;span style=&quot;font-size: 30px;&quot;&gt;&lt;br&gt;&lt;/span&gt;" style="rounded=0;whiteSpace=wrap;html=1;align=left;" parent="cFaB45KztUIKXS-_cTrr-14" vertex="1">
          <mxGeometry x="360" y="291" width="650" height="48" as="geometry" />
        </mxCell>
        <mxCell id="OfYwudYAJOJ5Hr9kt4Nj-5" value="&lt;span style=&quot;font-size: 30px;&quot;&gt;届出日&lt;/span&gt;" style="rounded=0;whiteSpace=wrap;html=1;align=right;dashed=1;dashPattern=8 8;verticalAlign=bottom;" parent="cFaB45KztUIKXS-_cTrr-14" vertex="1">
          <mxGeometry x="27" y="152" width="310" height="46" as="geometry" />
        </mxCell>
        <mxCell id="OfYwudYAJOJ5Hr9kt4Nj-6" value="&lt;font style=&quot;font-size: 30px;&quot;&gt;20221201&lt;/font&gt;&lt;span style=&quot;font-size: 30px;&quot;&gt;&lt;br&gt;&lt;/span&gt;" style="rounded=0;whiteSpace=wrap;html=1;align=left;fillColor=#CCCCCC;" parent="cFaB45KztUIKXS-_cTrr-14" vertex="1">
          <mxGeometry x="360" y="152" width="250" height="48" as="geometry" />
        </mxCell>
        <mxCell id="OfYwudYAJOJ5Hr9kt4Nj-7" value="&lt;span style=&quot;font-size: 30px;&quot;&gt;団体設立日&lt;/span&gt;" style="rounded=0;whiteSpace=wrap;html=1;align=right;dashed=1;dashPattern=8 8;verticalAlign=bottom;" parent="cFaB45KztUIKXS-_cTrr-14" vertex="1">
          <mxGeometry x="27" y="362" width="310" height="46" as="geometry" />
        </mxCell>
        <mxCell id="OfYwudYAJOJ5Hr9kt4Nj-8" value="&lt;font style=&quot;font-size: 30px;&quot;&gt;20221001&lt;/font&gt;&lt;span style=&quot;font-size: 30px;&quot;&gt;&lt;br&gt;&lt;/span&gt;" style="rounded=0;whiteSpace=wrap;html=1;align=left;fillColor=#FFFFFF;" parent="cFaB45KztUIKXS-_cTrr-14" vertex="1">
          <mxGeometry x="360" y="362" width="250" height="48" as="geometry" />
        </mxCell>
        <mxCell id="OfYwudYAJOJ5Hr9kt4Nj-11" value="&lt;span style=&quot;font-size: 30px;&quot;&gt;主たる事務所の所在地&lt;/span&gt;" style="rounded=0;whiteSpace=wrap;html=1;align=right;dashed=1;dashPattern=8 8;verticalAlign=bottom;" parent="cFaB45KztUIKXS-_cTrr-14" vertex="1">
          <mxGeometry x="30" y="501" width="310" height="46" as="geometry" />
        </mxCell>
        <mxCell id="OfYwudYAJOJ5Hr9kt4Nj-12" value="&lt;span style=&quot;font-size: 30px;&quot;&gt;123&lt;br&gt;&lt;/span&gt;" style="rounded=0;whiteSpace=wrap;html=1;align=right;" parent="cFaB45KztUIKXS-_cTrr-14" vertex="1">
          <mxGeometry x="360" y="564" width="170" height="48" as="geometry" />
        </mxCell>
        <mxCell id="OfYwudYAJOJ5Hr9kt4Nj-13" value="&lt;span style=&quot;font-size: 30px;&quot;&gt;郵便番号&lt;/span&gt;" style="rounded=0;whiteSpace=wrap;html=1;align=right;dashed=1;dashPattern=8 8;verticalAlign=bottom;" parent="cFaB45KztUIKXS-_cTrr-14" vertex="1">
          <mxGeometry x="30" y="566" width="310" height="46" as="geometry" />
        </mxCell>
        <mxCell id="OfYwudYAJOJ5Hr9kt4Nj-14" value="&lt;span style=&quot;font-size: 30px;&quot;&gt;456x&lt;br&gt;&lt;/span&gt;" style="rounded=0;whiteSpace=wrap;html=1;align=right;" parent="cFaB45KztUIKXS-_cTrr-14" vertex="1">
          <mxGeometry x="590" y="564" width="170" height="48" as="geometry" />
        </mxCell>
        <mxCell id="OfYwudYAJOJ5Hr9kt4Nj-15" value="&lt;span style=&quot;font-size: 30px;&quot;&gt;住所(郵便番号)&lt;/span&gt;" style="rounded=0;whiteSpace=wrap;html=1;align=right;dashed=1;dashPattern=8 8;verticalAlign=bottom;" parent="cFaB45KztUIKXS-_cTrr-14" vertex="1">
          <mxGeometry x="30" y="796" width="310" height="46" as="geometry" />
        </mxCell>
        <mxCell id="OfYwudYAJOJ5Hr9kt4Nj-16" value="&lt;span style=&quot;font-size: 30px;&quot;&gt;番地&lt;/span&gt;" style="rounded=0;whiteSpace=wrap;html=1;align=right;dashed=1;dashPattern=8 8;verticalAlign=bottom;" parent="cFaB45KztUIKXS-_cTrr-14" vertex="1">
          <mxGeometry x="30" y="859" width="310" height="46" as="geometry" />
        </mxCell>
        <mxCell id="OfYwudYAJOJ5Hr9kt4Nj-17" value="&lt;span style=&quot;font-size: 30px;&quot;&gt;建物&lt;/span&gt;" style="rounded=0;whiteSpace=wrap;html=1;align=right;dashed=1;dashPattern=8 8;verticalAlign=bottom;" parent="cFaB45KztUIKXS-_cTrr-14" vertex="1">
          <mxGeometry x="30" y="921" width="310" height="46" as="geometry" />
        </mxCell>
        <mxCell id="OfYwudYAJOJ5Hr9kt4Nj-18" value="&lt;span style=&quot;font-size: 30px;&quot;&gt;東京都千代田区霞ケ浦&lt;/span&gt;" style="rounded=0;whiteSpace=wrap;html=1;align=left;" parent="cFaB45KztUIKXS-_cTrr-14" vertex="1">
          <mxGeometry x="360" y="795" width="550" height="48" as="geometry" />
        </mxCell>
        <mxCell id="OfYwudYAJOJ5Hr9kt4Nj-19" value="&lt;span style=&quot;font-size: 30px;&quot;&gt;x丁目y番地&lt;/span&gt;" style="rounded=0;whiteSpace=wrap;html=1;align=left;" parent="cFaB45KztUIKXS-_cTrr-14" vertex="1">
          <mxGeometry x="360" y="861" width="550" height="48" as="geometry" />
        </mxCell>
        <mxCell id="OfYwudYAJOJ5Hr9kt4Nj-20" value="&lt;span style=&quot;font-size: 30px;&quot;&gt;zzzabcビル3Fqqq号室&lt;/span&gt;" style="rounded=0;whiteSpace=wrap;html=1;align=left;" parent="cFaB45KztUIKXS-_cTrr-14" vertex="1">
          <mxGeometry x="360" y="923" width="550" height="48" as="geometry" />
        </mxCell>
        <mxCell id="OfYwudYAJOJ5Hr9kt4Nj-21" value="&lt;span style=&quot;font-size: 30px;&quot;&gt;－&lt;/span&gt;" style="rounded=0;whiteSpace=wrap;html=1;align=right;dashed=1;dashPattern=8 8;verticalAlign=bottom;" parent="cFaB45KztUIKXS-_cTrr-14" vertex="1">
          <mxGeometry x="541" y="566" width="40" height="46" as="geometry" />
        </mxCell>
        <mxCell id="OfYwudYAJOJ5Hr9kt4Nj-22" value="&lt;font style=&quot;font-size: 30px;&quot;&gt;0123&lt;/font&gt;" style="rounded=0;whiteSpace=wrap;html=1;align=right;fillColor=#FFFFFF;" parent="cFaB45KztUIKXS-_cTrr-14" vertex="1">
          <mxGeometry x="359" y="430" width="170" height="48" as="geometry" />
        </mxCell>
        <mxCell id="OfYwudYAJOJ5Hr9kt4Nj-23" value="&lt;span style=&quot;font-size: 30px;&quot;&gt;電話番号&lt;/span&gt;" style="rounded=0;whiteSpace=wrap;html=1;align=right;dashed=1;dashPattern=8 8;verticalAlign=bottom;" parent="cFaB45KztUIKXS-_cTrr-14" vertex="1">
          <mxGeometry x="29" y="432" width="310" height="46" as="geometry" />
        </mxCell>
        <mxCell id="OfYwudYAJOJ5Hr9kt4Nj-24" value="&lt;span style=&quot;font-size: 30px;&quot;&gt;45&lt;br&gt;&lt;/span&gt;" style="rounded=0;whiteSpace=wrap;html=1;align=right;" parent="cFaB45KztUIKXS-_cTrr-14" vertex="1">
          <mxGeometry x="589" y="430" width="170" height="48" as="geometry" />
        </mxCell>
        <mxCell id="OfYwudYAJOJ5Hr9kt4Nj-25" value="&lt;span style=&quot;font-size: 30px;&quot;&gt;－&lt;/span&gt;" style="rounded=0;whiteSpace=wrap;html=1;align=right;dashed=1;dashPattern=8 8;verticalAlign=bottom;" parent="cFaB45KztUIKXS-_cTrr-14" vertex="1">
          <mxGeometry x="540" y="432" width="40" height="46" as="geometry" />
        </mxCell>
        <mxCell id="OfYwudYAJOJ5Hr9kt4Nj-26" value="&lt;span style=&quot;font-size: 30px;&quot;&gt;678z&lt;br&gt;&lt;/span&gt;" style="rounded=0;whiteSpace=wrap;html=1;align=right;" parent="cFaB45KztUIKXS-_cTrr-14" vertex="1">
          <mxGeometry x="829" y="430" width="170" height="48" as="geometry" />
        </mxCell>
        <mxCell id="OfYwudYAJOJ5Hr9kt4Nj-27" value="&lt;span style=&quot;font-size: 30px;&quot;&gt;－&lt;/span&gt;" style="rounded=0;whiteSpace=wrap;html=1;align=right;dashed=1;dashPattern=8 8;verticalAlign=bottom;" parent="cFaB45KztUIKXS-_cTrr-14" vertex="1">
          <mxGeometry x="780" y="432" width="40" height="46" as="geometry" />
        </mxCell>
        <mxCell id="OfYwudYAJOJ5Hr9kt4Nj-28" value="&lt;span style=&quot;font-size: 30px;&quot;&gt;住所(全)&lt;/span&gt;" style="rounded=0;whiteSpace=wrap;html=1;align=right;dashed=1;dashPattern=8 8;verticalAlign=bottom;" parent="cFaB45KztUIKXS-_cTrr-14" vertex="1">
          <mxGeometry x="30" y="635" width="310" height="46" as="geometry" />
        </mxCell>
        <mxCell id="OfYwudYAJOJ5Hr9kt4Nj-29" value="&lt;span style=&quot;font-size: 30px;&quot;&gt;東京都千代田区霞ケ浦&lt;/span&gt;&lt;span style=&quot;font-size: 30px;&quot;&gt;x丁目y番地&amp;nbsp;&lt;/span&gt;&lt;span style=&quot;font-size: 30px;&quot;&gt;zzzabcビル3Fqqq号室&lt;/span&gt;" style="rounded=0;whiteSpace=wrap;html=1;align=left;verticalAlign=top;fillColor=#CCCCCC;" parent="cFaB45KztUIKXS-_cTrr-14" vertex="1">
          <mxGeometry x="360" y="635" width="850" height="145" as="geometry" />
        </mxCell>
        <mxCell id="OfYwudYAJOJ5Hr9kt4Nj-30" value="&lt;span style=&quot;font-size: 30px;&quot;&gt;代表者住所&lt;/span&gt;" style="rounded=0;whiteSpace=wrap;html=1;align=right;dashed=1;dashPattern=8 8;verticalAlign=bottom;" parent="cFaB45KztUIKXS-_cTrr-14" vertex="1">
          <mxGeometry x="90" y="1248" width="310" height="46" as="geometry" />
        </mxCell>
        <mxCell id="OfYwudYAJOJ5Hr9kt4Nj-31" value="&lt;span style=&quot;font-size: 30px;&quot;&gt;123&lt;br&gt;&lt;/span&gt;" style="rounded=0;whiteSpace=wrap;html=1;align=right;" parent="cFaB45KztUIKXS-_cTrr-14" vertex="1">
          <mxGeometry x="420" y="1310" width="170" height="48" as="geometry" />
        </mxCell>
        <mxCell id="OfYwudYAJOJ5Hr9kt4Nj-32" value="&lt;span style=&quot;font-size: 30px;&quot;&gt;郵便番号&lt;/span&gt;" style="rounded=0;whiteSpace=wrap;html=1;align=right;dashed=1;dashPattern=8 8;verticalAlign=bottom;" parent="cFaB45KztUIKXS-_cTrr-14" vertex="1">
          <mxGeometry x="90" y="1312" width="310" height="46" as="geometry" />
        </mxCell>
        <mxCell id="OfYwudYAJOJ5Hr9kt4Nj-33" value="&lt;span style=&quot;font-size: 30px;&quot;&gt;456x&lt;br&gt;&lt;/span&gt;" style="rounded=0;whiteSpace=wrap;html=1;align=right;" parent="cFaB45KztUIKXS-_cTrr-14" vertex="1">
          <mxGeometry x="650" y="1310" width="170" height="48" as="geometry" />
        </mxCell>
        <mxCell id="OfYwudYAJOJ5Hr9kt4Nj-34" value="&lt;span style=&quot;font-size: 30px;&quot;&gt;住所(郵便番号)&lt;/span&gt;" style="rounded=0;whiteSpace=wrap;html=1;align=right;dashed=1;dashPattern=8 8;verticalAlign=bottom;" parent="cFaB45KztUIKXS-_cTrr-14" vertex="1">
          <mxGeometry x="90" y="1552" width="310" height="46" as="geometry" />
        </mxCell>
        <mxCell id="OfYwudYAJOJ5Hr9kt4Nj-35" value="&lt;span style=&quot;font-size: 30px;&quot;&gt;番地&lt;/span&gt;" style="rounded=0;whiteSpace=wrap;html=1;align=right;dashed=1;dashPattern=8 8;verticalAlign=bottom;" parent="cFaB45KztUIKXS-_cTrr-14" vertex="1">
          <mxGeometry x="90" y="1615" width="310" height="46" as="geometry" />
        </mxCell>
        <mxCell id="OfYwudYAJOJ5Hr9kt4Nj-36" value="&lt;span style=&quot;font-size: 30px;&quot;&gt;建物&lt;/span&gt;" style="rounded=0;whiteSpace=wrap;html=1;align=right;dashed=1;dashPattern=8 8;verticalAlign=bottom;" parent="cFaB45KztUIKXS-_cTrr-14" vertex="1">
          <mxGeometry x="90" y="1677" width="310" height="46" as="geometry" />
        </mxCell>
        <mxCell id="OfYwudYAJOJ5Hr9kt4Nj-37" value="&lt;span style=&quot;font-size: 30px;&quot;&gt;山梨県実在市朝靄町&lt;/span&gt;" style="rounded=0;whiteSpace=wrap;html=1;align=left;" parent="cFaB45KztUIKXS-_cTrr-14" vertex="1">
          <mxGeometry x="420" y="1551" width="550" height="48" as="geometry" />
        </mxCell>
        <mxCell id="OfYwudYAJOJ5Hr9kt4Nj-38" value="&lt;span style=&quot;font-size: 30px;&quot;&gt;x丁目y番地&lt;/span&gt;" style="rounded=0;whiteSpace=wrap;html=1;align=left;" parent="cFaB45KztUIKXS-_cTrr-14" vertex="1">
          <mxGeometry x="420" y="1617" width="550" height="48" as="geometry" />
        </mxCell>
        <mxCell id="OfYwudYAJOJ5Hr9kt4Nj-39" value="&lt;span style=&quot;font-size: 30px;&quot;&gt;zzzabcビル3Fqqq号室&lt;/span&gt;" style="rounded=0;whiteSpace=wrap;html=1;align=left;" parent="cFaB45KztUIKXS-_cTrr-14" vertex="1">
          <mxGeometry x="420" y="1679" width="550" height="48" as="geometry" />
        </mxCell>
        <mxCell id="OfYwudYAJOJ5Hr9kt4Nj-40" value="&lt;span style=&quot;font-size: 30px;&quot;&gt;代表者の氏名&lt;/span&gt;" style="rounded=0;whiteSpace=wrap;html=1;align=right;dashed=1;dashPattern=8 8;verticalAlign=bottom;" parent="cFaB45KztUIKXS-_cTrr-14" vertex="1">
          <mxGeometry x="110" y="1053" width="290" height="46" as="geometry" />
        </mxCell>
        <mxCell id="OfYwudYAJOJ5Hr9kt4Nj-41" value="&lt;span style=&quot;font-size: 30px;&quot;&gt;代表者&lt;/span&gt;" style="rounded=0;whiteSpace=wrap;html=1;align=left;" parent="cFaB45KztUIKXS-_cTrr-14" vertex="1">
          <mxGeometry x="420" y="1112" width="250" height="48" as="geometry" />
        </mxCell>
        <mxCell id="OfYwudYAJOJ5Hr9kt4Nj-42" value="&lt;span style=&quot;font-size: 30px;&quot;&gt;－&lt;/span&gt;" style="rounded=0;whiteSpace=wrap;html=1;align=right;dashed=1;dashPattern=8 8;verticalAlign=bottom;" parent="cFaB45KztUIKXS-_cTrr-14" vertex="1">
          <mxGeometry x="601" y="1312" width="40" height="46" as="geometry" />
        </mxCell>
        <mxCell id="OfYwudYAJOJ5Hr9kt4Nj-43" value="&lt;span style=&quot;font-size: 30px;&quot;&gt;生年月日&lt;/span&gt;" style="rounded=0;whiteSpace=wrap;html=1;align=right;dashed=1;dashPattern=8 8;verticalAlign=bottom;" parent="cFaB45KztUIKXS-_cTrr-14" vertex="1">
          <mxGeometry x="90" y="1746" width="310" height="46" as="geometry" />
        </mxCell>
        <mxCell id="OfYwudYAJOJ5Hr9kt4Nj-44" value="&lt;font style=&quot;font-size: 30px;&quot;&gt;20221201&lt;/font&gt;" style="rounded=0;whiteSpace=wrap;html=1;align=right;" parent="cFaB45KztUIKXS-_cTrr-14" vertex="1">
          <mxGeometry x="420" y="1744" width="250" height="48" as="geometry" />
        </mxCell>
        <mxCell id="OfYwudYAJOJ5Hr9kt4Nj-45" value="&lt;span style=&quot;font-size: 30px;&quot;&gt;選任年月日&lt;/span&gt;" style="rounded=0;whiteSpace=wrap;html=1;align=right;dashed=1;dashPattern=8 8;verticalAlign=bottom;" parent="cFaB45KztUIKXS-_cTrr-14" vertex="1">
          <mxGeometry x="90" y="1816" width="310" height="46" as="geometry" />
        </mxCell>
        <mxCell id="OfYwudYAJOJ5Hr9kt4Nj-46" value="&lt;font style=&quot;font-size: 30px;&quot;&gt;20221201&lt;/font&gt;" style="rounded=0;whiteSpace=wrap;html=1;align=right;" parent="cFaB45KztUIKXS-_cTrr-14" vertex="1">
          <mxGeometry x="420" y="1814" width="250" height="48" as="geometry" />
        </mxCell>
        <mxCell id="OfYwudYAJOJ5Hr9kt4Nj-47" value="&lt;span style=&quot;font-size: 30px;&quot;&gt;&lt;b&gt;代表者の入力項目&lt;/b&gt;&lt;/span&gt;" style="rounded=0;whiteSpace=wrap;html=1;align=left;dashed=1;dashPattern=8 8;verticalAlign=bottom;" parent="cFaB45KztUIKXS-_cTrr-14" vertex="1">
          <mxGeometry x="50" y="993" width="290" height="46" as="geometry" />
        </mxCell>
        <mxCell id="OfYwudYAJOJ5Hr9kt4Nj-48" value="&lt;span style=&quot;font-size: 30px;&quot;&gt;太郎&lt;/span&gt;" style="rounded=0;whiteSpace=wrap;html=1;align=left;" parent="cFaB45KztUIKXS-_cTrr-14" vertex="1">
          <mxGeometry x="750" y="1112" width="250" height="48" as="geometry" />
        </mxCell>
        <mxCell id="OfYwudYAJOJ5Hr9kt4Nj-49" value="&lt;span style=&quot;font-size: 30px;&quot;&gt;(姓)&lt;/span&gt;" style="rounded=0;whiteSpace=wrap;html=1;align=right;dashed=1;dashPattern=8 8;verticalAlign=bottom;" parent="cFaB45KztUIKXS-_cTrr-14" vertex="1">
          <mxGeometry x="674" y="1113" width="50" height="46" as="geometry" />
        </mxCell>
        <mxCell id="OfYwudYAJOJ5Hr9kt4Nj-50" value="&lt;span style=&quot;font-size: 30px;&quot;&gt;(名)&lt;/span&gt;" style="rounded=0;whiteSpace=wrap;html=1;align=right;dashed=1;dashPattern=8 8;verticalAlign=bottom;" parent="cFaB45KztUIKXS-_cTrr-14" vertex="1">
          <mxGeometry x="1004" y="1113" width="50" height="46" as="geometry" />
        </mxCell>
        <mxCell id="OfYwudYAJOJ5Hr9kt4Nj-51" value="&lt;font style=&quot;font-size: 30px;&quot;&gt;0123&lt;/font&gt;" style="rounded=0;whiteSpace=wrap;html=1;align=right;" parent="cFaB45KztUIKXS-_cTrr-14" vertex="1">
          <mxGeometry x="420" y="1180" width="170" height="48" as="geometry" />
        </mxCell>
        <mxCell id="OfYwudYAJOJ5Hr9kt4Nj-52" value="&lt;span style=&quot;font-size: 30px;&quot;&gt;電話番号&lt;/span&gt;" style="rounded=0;whiteSpace=wrap;html=1;align=right;dashed=1;dashPattern=8 8;verticalAlign=bottom;" parent="cFaB45KztUIKXS-_cTrr-14" vertex="1">
          <mxGeometry x="90" y="1182" width="310" height="46" as="geometry" />
        </mxCell>
        <mxCell id="OfYwudYAJOJ5Hr9kt4Nj-53" value="&lt;span style=&quot;font-size: 30px;&quot;&gt;45&lt;br&gt;&lt;/span&gt;" style="rounded=0;whiteSpace=wrap;html=1;align=right;" parent="cFaB45KztUIKXS-_cTrr-14" vertex="1">
          <mxGeometry x="650" y="1180" width="170" height="48" as="geometry" />
        </mxCell>
        <mxCell id="OfYwudYAJOJ5Hr9kt4Nj-54" value="&lt;span style=&quot;font-size: 30px;&quot;&gt;－&lt;/span&gt;" style="rounded=0;whiteSpace=wrap;html=1;align=right;dashed=1;dashPattern=8 8;verticalAlign=bottom;" parent="cFaB45KztUIKXS-_cTrr-14" vertex="1">
          <mxGeometry x="601" y="1182" width="40" height="46" as="geometry" />
        </mxCell>
        <mxCell id="OfYwudYAJOJ5Hr9kt4Nj-55" value="&lt;span style=&quot;font-size: 30px;&quot;&gt;678z&lt;br&gt;&lt;/span&gt;" style="rounded=0;whiteSpace=wrap;html=1;align=right;" parent="cFaB45KztUIKXS-_cTrr-14" vertex="1">
          <mxGeometry x="890" y="1180" width="170" height="48" as="geometry" />
        </mxCell>
        <mxCell id="OfYwudYAJOJ5Hr9kt4Nj-56" value="&lt;span style=&quot;font-size: 30px;&quot;&gt;－&lt;/span&gt;" style="rounded=0;whiteSpace=wrap;html=1;align=right;dashed=1;dashPattern=8 8;verticalAlign=bottom;" parent="cFaB45KztUIKXS-_cTrr-14" vertex="1">
          <mxGeometry x="841" y="1182" width="40" height="46" as="geometry" />
        </mxCell>
        <mxCell id="OfYwudYAJOJ5Hr9kt4Nj-57" value="&lt;font style=&quot;font-size: 30px;&quot;&gt;マイケル&lt;/font&gt;" style="rounded=0;whiteSpace=wrap;html=1;align=left;" parent="cFaB45KztUIKXS-_cTrr-14" vertex="1">
          <mxGeometry x="1070" y="1115" width="250" height="48" as="geometry" />
        </mxCell>
        <mxCell id="OfYwudYAJOJ5Hr9kt4Nj-58" value="&lt;span style=&quot;font-size: 30px;&quot;&gt;(ミドルネーム)&lt;/span&gt;" style="rounded=0;whiteSpace=wrap;html=1;align=right;dashed=1;dashPattern=8 8;verticalAlign=bottom;" parent="cFaB45KztUIKXS-_cTrr-14" vertex="1">
          <mxGeometry x="1324" y="1116" width="206" height="46" as="geometry" />
        </mxCell>
        <mxCell id="OfYwudYAJOJ5Hr9kt4Nj-59" value="&lt;span style=&quot;font-size: 30px;&quot;&gt;代表者&lt;/span&gt;" style="rounded=0;whiteSpace=wrap;html=1;align=left;fillColor=#CCCCCC;" parent="cFaB45KztUIKXS-_cTrr-14" vertex="1">
          <mxGeometry x="420" y="1052" width="250" height="48" as="geometry" />
        </mxCell>
        <mxCell id="OfYwudYAJOJ5Hr9kt4Nj-60" value="&lt;span style=&quot;font-size: 30px;&quot;&gt;マイケル太郎&lt;/span&gt;" style="rounded=0;whiteSpace=wrap;html=1;align=left;fillColor=#CCCCCC;" parent="cFaB45KztUIKXS-_cTrr-14" vertex="1">
          <mxGeometry x="750" y="1052" width="250" height="48" as="geometry" />
        </mxCell>
        <mxCell id="OfYwudYAJOJ5Hr9kt4Nj-61" value="&lt;span style=&quot;font-size: 30px;&quot;&gt;(姓)&lt;/span&gt;" style="rounded=0;whiteSpace=wrap;html=1;align=right;dashed=1;dashPattern=8 8;verticalAlign=bottom;" parent="cFaB45KztUIKXS-_cTrr-14" vertex="1">
          <mxGeometry x="674" y="1053" width="50" height="46" as="geometry" />
        </mxCell>
        <mxCell id="OfYwudYAJOJ5Hr9kt4Nj-62" value="&lt;span style=&quot;font-size: 30px;&quot;&gt;(名)&lt;/span&gt;" style="rounded=0;whiteSpace=wrap;html=1;align=right;dashed=1;dashPattern=8 8;verticalAlign=bottom;" parent="cFaB45KztUIKXS-_cTrr-14" vertex="1">
          <mxGeometry x="1004" y="1053" width="50" height="46" as="geometry" />
        </mxCell>
        <mxCell id="OfYwudYAJOJ5Hr9kt4Nj-63" value="&lt;span style=&quot;font-size: 30px;&quot;&gt;住所(全)&lt;/span&gt;" style="rounded=0;whiteSpace=wrap;html=1;align=right;dashed=1;dashPattern=8 8;verticalAlign=bottom;" parent="cFaB45KztUIKXS-_cTrr-14" vertex="1">
          <mxGeometry x="90" y="1385" width="310" height="46" as="geometry" />
        </mxCell>
        <mxCell id="OfYwudYAJOJ5Hr9kt4Nj-64" value="&lt;span style=&quot;font-size: 30px;&quot;&gt;山梨県実在市朝靄町&lt;/span&gt;&lt;span style=&quot;font-size: 30px;&quot;&gt;x丁目y番地&amp;nbsp;&lt;/span&gt;&lt;span style=&quot;font-size: 30px;&quot;&gt;zzzabcビル3Fqqq号室&lt;/span&gt;" style="rounded=0;whiteSpace=wrap;html=1;align=left;verticalAlign=top;fillColor=#CCCCCC;" parent="cFaB45KztUIKXS-_cTrr-14" vertex="1">
          <mxGeometry x="420" y="1385" width="850" height="145" as="geometry" />
        </mxCell>
        <mxCell id="OfYwudYAJOJ5Hr9kt4Nj-65" value="&lt;span style=&quot;font-size: 30px;&quot;&gt;代表者住所&lt;/span&gt;" style="rounded=0;whiteSpace=wrap;html=1;align=right;dashed=1;dashPattern=8 8;verticalAlign=bottom;" parent="cFaB45KztUIKXS-_cTrr-14" vertex="1">
          <mxGeometry x="90" y="2155" width="310" height="46" as="geometry" />
        </mxCell>
        <mxCell id="OfYwudYAJOJ5Hr9kt4Nj-66" value="&lt;span style=&quot;font-size: 30px;&quot;&gt;123&lt;br&gt;&lt;/span&gt;" style="rounded=0;whiteSpace=wrap;html=1;align=right;" parent="cFaB45KztUIKXS-_cTrr-14" vertex="1">
          <mxGeometry x="420" y="2217" width="170" height="48" as="geometry" />
        </mxCell>
        <mxCell id="OfYwudYAJOJ5Hr9kt4Nj-67" value="&lt;span style=&quot;font-size: 30px;&quot;&gt;郵便番号&lt;/span&gt;" style="rounded=0;whiteSpace=wrap;html=1;align=right;dashed=1;dashPattern=8 8;verticalAlign=bottom;" parent="cFaB45KztUIKXS-_cTrr-14" vertex="1">
          <mxGeometry x="90" y="2219" width="310" height="46" as="geometry" />
        </mxCell>
        <mxCell id="OfYwudYAJOJ5Hr9kt4Nj-68" value="&lt;span style=&quot;font-size: 30px;&quot;&gt;456x&lt;br&gt;&lt;/span&gt;" style="rounded=0;whiteSpace=wrap;html=1;align=right;" parent="cFaB45KztUIKXS-_cTrr-14" vertex="1">
          <mxGeometry x="650" y="2217" width="170" height="48" as="geometry" />
        </mxCell>
        <mxCell id="OfYwudYAJOJ5Hr9kt4Nj-69" value="&lt;span style=&quot;font-size: 30px;&quot;&gt;住所(郵便番号)&lt;/span&gt;" style="rounded=0;whiteSpace=wrap;html=1;align=right;dashed=1;dashPattern=8 8;verticalAlign=bottom;" parent="cFaB45KztUIKXS-_cTrr-14" vertex="1">
          <mxGeometry x="90" y="2459" width="310" height="46" as="geometry" />
        </mxCell>
        <mxCell id="OfYwudYAJOJ5Hr9kt4Nj-70" value="&lt;span style=&quot;font-size: 30px;&quot;&gt;番地&lt;/span&gt;" style="rounded=0;whiteSpace=wrap;html=1;align=right;dashed=1;dashPattern=8 8;verticalAlign=bottom;" parent="cFaB45KztUIKXS-_cTrr-14" vertex="1">
          <mxGeometry x="90" y="2522" width="310" height="46" as="geometry" />
        </mxCell>
        <mxCell id="OfYwudYAJOJ5Hr9kt4Nj-71" value="&lt;span style=&quot;font-size: 30px;&quot;&gt;建物&lt;/span&gt;" style="rounded=0;whiteSpace=wrap;html=1;align=right;dashed=1;dashPattern=8 8;verticalAlign=bottom;" parent="cFaB45KztUIKXS-_cTrr-14" vertex="1">
          <mxGeometry x="90" y="2584" width="310" height="46" as="geometry" />
        </mxCell>
        <mxCell id="OfYwudYAJOJ5Hr9kt4Nj-72" value="&lt;span style=&quot;font-size: 30px;&quot;&gt;山梨県実在市朝靄町&lt;/span&gt;" style="rounded=0;whiteSpace=wrap;html=1;align=left;" parent="cFaB45KztUIKXS-_cTrr-14" vertex="1">
          <mxGeometry x="420" y="2458" width="550" height="48" as="geometry" />
        </mxCell>
        <mxCell id="OfYwudYAJOJ5Hr9kt4Nj-73" value="&lt;span style=&quot;font-size: 30px;&quot;&gt;x丁目y番地&lt;/span&gt;" style="rounded=0;whiteSpace=wrap;html=1;align=left;" parent="cFaB45KztUIKXS-_cTrr-14" vertex="1">
          <mxGeometry x="420" y="2524" width="550" height="48" as="geometry" />
        </mxCell>
        <mxCell id="OfYwudYAJOJ5Hr9kt4Nj-74" value="&lt;span style=&quot;font-size: 30px;&quot;&gt;zzzabcビル3Fqqq号室&lt;/span&gt;" style="rounded=0;whiteSpace=wrap;html=1;align=left;" parent="cFaB45KztUIKXS-_cTrr-14" vertex="1">
          <mxGeometry x="420" y="2586" width="550" height="48" as="geometry" />
        </mxCell>
        <mxCell id="OfYwudYAJOJ5Hr9kt4Nj-75" value="&lt;span style=&quot;font-size: 30px;&quot;&gt;代表者の氏名&lt;/span&gt;" style="rounded=0;whiteSpace=wrap;html=1;align=right;dashed=1;dashPattern=8 8;verticalAlign=bottom;" parent="cFaB45KztUIKXS-_cTrr-14" vertex="1">
          <mxGeometry x="110" y="1960" width="290" height="46" as="geometry" />
        </mxCell>
        <mxCell id="OfYwudYAJOJ5Hr9kt4Nj-76" value="&lt;span style=&quot;font-size: 30px;&quot;&gt;会計責任者&lt;/span&gt;" style="rounded=0;whiteSpace=wrap;html=1;align=left;" parent="cFaB45KztUIKXS-_cTrr-14" vertex="1">
          <mxGeometry x="420" y="2019" width="250" height="48" as="geometry" />
        </mxCell>
        <mxCell id="OfYwudYAJOJ5Hr9kt4Nj-77" value="&lt;span style=&quot;font-size: 30px;&quot;&gt;－&lt;/span&gt;" style="rounded=0;whiteSpace=wrap;html=1;align=right;dashed=1;dashPattern=8 8;verticalAlign=bottom;" parent="cFaB45KztUIKXS-_cTrr-14" vertex="1">
          <mxGeometry x="601" y="2219" width="40" height="46" as="geometry" />
        </mxCell>
        <mxCell id="OfYwudYAJOJ5Hr9kt4Nj-78" value="&lt;span style=&quot;font-size: 30px;&quot;&gt;生年月日&lt;/span&gt;" style="rounded=0;whiteSpace=wrap;html=1;align=right;dashed=1;dashPattern=8 8;verticalAlign=bottom;" parent="cFaB45KztUIKXS-_cTrr-14" vertex="1">
          <mxGeometry x="90" y="2653" width="310" height="46" as="geometry" />
        </mxCell>
        <mxCell id="OfYwudYAJOJ5Hr9kt4Nj-79" value="&lt;font style=&quot;font-size: 30px;&quot;&gt;20221201&lt;/font&gt;" style="rounded=0;whiteSpace=wrap;html=1;align=right;" parent="cFaB45KztUIKXS-_cTrr-14" vertex="1">
          <mxGeometry x="420" y="2651" width="250" height="48" as="geometry" />
        </mxCell>
        <mxCell id="OfYwudYAJOJ5Hr9kt4Nj-80" value="&lt;span style=&quot;font-size: 30px;&quot;&gt;選任年月日&lt;/span&gt;" style="rounded=0;whiteSpace=wrap;html=1;align=right;dashed=1;dashPattern=8 8;verticalAlign=bottom;" parent="cFaB45KztUIKXS-_cTrr-14" vertex="1">
          <mxGeometry x="90" y="2723" width="310" height="46" as="geometry" />
        </mxCell>
        <mxCell id="OfYwudYAJOJ5Hr9kt4Nj-81" value="&lt;font style=&quot;font-size: 30px;&quot;&gt;20221201&lt;/font&gt;" style="rounded=0;whiteSpace=wrap;html=1;align=right;" parent="cFaB45KztUIKXS-_cTrr-14" vertex="1">
          <mxGeometry x="420" y="2721" width="250" height="48" as="geometry" />
        </mxCell>
        <mxCell id="OfYwudYAJOJ5Hr9kt4Nj-82" value="&lt;span style=&quot;font-size: 30px;&quot;&gt;&lt;b&gt;会計責任者の入力項目&lt;/b&gt;&lt;/span&gt;" style="rounded=0;whiteSpace=wrap;html=1;align=left;dashed=1;dashPattern=8 8;verticalAlign=bottom;" parent="cFaB45KztUIKXS-_cTrr-14" vertex="1">
          <mxGeometry x="50" y="1900" width="340" height="46" as="geometry" />
        </mxCell>
        <mxCell id="OfYwudYAJOJ5Hr9kt4Nj-83" value="&lt;span style=&quot;font-size: 30px;&quot;&gt;花子&lt;/span&gt;" style="rounded=0;whiteSpace=wrap;html=1;align=left;" parent="cFaB45KztUIKXS-_cTrr-14" vertex="1">
          <mxGeometry x="750" y="2019" width="250" height="48" as="geometry" />
        </mxCell>
        <mxCell id="OfYwudYAJOJ5Hr9kt4Nj-84" value="&lt;span style=&quot;font-size: 30px;&quot;&gt;(姓)&lt;/span&gt;" style="rounded=0;whiteSpace=wrap;html=1;align=right;dashed=1;dashPattern=8 8;verticalAlign=bottom;" parent="cFaB45KztUIKXS-_cTrr-14" vertex="1">
          <mxGeometry x="674" y="2020" width="50" height="46" as="geometry" />
        </mxCell>
        <mxCell id="OfYwudYAJOJ5Hr9kt4Nj-85" value="&lt;span style=&quot;font-size: 30px;&quot;&gt;(名)&lt;/span&gt;" style="rounded=0;whiteSpace=wrap;html=1;align=right;dashed=1;dashPattern=8 8;verticalAlign=bottom;" parent="cFaB45KztUIKXS-_cTrr-14" vertex="1">
          <mxGeometry x="1004" y="2020" width="50" height="46" as="geometry" />
        </mxCell>
        <mxCell id="OfYwudYAJOJ5Hr9kt4Nj-86" value="&lt;font style=&quot;font-size: 30px;&quot;&gt;0123&lt;/font&gt;" style="rounded=0;whiteSpace=wrap;html=1;align=right;" parent="cFaB45KztUIKXS-_cTrr-14" vertex="1">
          <mxGeometry x="420" y="2087" width="170" height="48" as="geometry" />
        </mxCell>
        <mxCell id="OfYwudYAJOJ5Hr9kt4Nj-87" value="&lt;span style=&quot;font-size: 30px;&quot;&gt;電話番号&lt;/span&gt;" style="rounded=0;whiteSpace=wrap;html=1;align=right;dashed=1;dashPattern=8 8;verticalAlign=bottom;" parent="cFaB45KztUIKXS-_cTrr-14" vertex="1">
          <mxGeometry x="90" y="2089" width="310" height="46" as="geometry" />
        </mxCell>
        <mxCell id="OfYwudYAJOJ5Hr9kt4Nj-88" value="&lt;span style=&quot;font-size: 30px;&quot;&gt;45&lt;br&gt;&lt;/span&gt;" style="rounded=0;whiteSpace=wrap;html=1;align=right;" parent="cFaB45KztUIKXS-_cTrr-14" vertex="1">
          <mxGeometry x="650" y="2087" width="170" height="48" as="geometry" />
        </mxCell>
        <mxCell id="OfYwudYAJOJ5Hr9kt4Nj-89" value="&lt;span style=&quot;font-size: 30px;&quot;&gt;－&lt;/span&gt;" style="rounded=0;whiteSpace=wrap;html=1;align=right;dashed=1;dashPattern=8 8;verticalAlign=bottom;" parent="cFaB45KztUIKXS-_cTrr-14" vertex="1">
          <mxGeometry x="601" y="2089" width="40" height="46" as="geometry" />
        </mxCell>
        <mxCell id="OfYwudYAJOJ5Hr9kt4Nj-90" value="&lt;span style=&quot;font-size: 30px;&quot;&gt;678z&lt;br&gt;&lt;/span&gt;" style="rounded=0;whiteSpace=wrap;html=1;align=right;" parent="cFaB45KztUIKXS-_cTrr-14" vertex="1">
          <mxGeometry x="890" y="2087" width="170" height="48" as="geometry" />
        </mxCell>
        <mxCell id="OfYwudYAJOJ5Hr9kt4Nj-91" value="&lt;span style=&quot;font-size: 30px;&quot;&gt;－&lt;/span&gt;" style="rounded=0;whiteSpace=wrap;html=1;align=right;dashed=1;dashPattern=8 8;verticalAlign=bottom;" parent="cFaB45KztUIKXS-_cTrr-14" vertex="1">
          <mxGeometry x="841" y="2089" width="40" height="46" as="geometry" />
        </mxCell>
        <mxCell id="OfYwudYAJOJ5Hr9kt4Nj-92" value="&lt;font style=&quot;font-size: 30px;&quot;&gt;スーザン&lt;/font&gt;" style="rounded=0;whiteSpace=wrap;html=1;align=left;" parent="cFaB45KztUIKXS-_cTrr-14" vertex="1">
          <mxGeometry x="1070" y="2022" width="250" height="48" as="geometry" />
        </mxCell>
        <mxCell id="OfYwudYAJOJ5Hr9kt4Nj-93" value="&lt;span style=&quot;font-size: 30px;&quot;&gt;(ミドルネーム)&lt;/span&gt;" style="rounded=0;whiteSpace=wrap;html=1;align=right;dashed=1;dashPattern=8 8;verticalAlign=bottom;" parent="cFaB45KztUIKXS-_cTrr-14" vertex="1">
          <mxGeometry x="1324" y="2023" width="206" height="46" as="geometry" />
        </mxCell>
        <mxCell id="OfYwudYAJOJ5Hr9kt4Nj-94" value="&lt;span style=&quot;font-size: 30px;&quot;&gt;会計責任者&lt;/span&gt;" style="rounded=0;whiteSpace=wrap;html=1;align=left;fillColor=#CCCCCC;" parent="cFaB45KztUIKXS-_cTrr-14" vertex="1">
          <mxGeometry x="420" y="1959" width="250" height="48" as="geometry" />
        </mxCell>
        <mxCell id="OfYwudYAJOJ5Hr9kt4Nj-95" value="&lt;span style=&quot;font-size: 30px;&quot;&gt;スーザン花子&lt;/span&gt;" style="rounded=0;whiteSpace=wrap;html=1;align=left;fillColor=#CCCCCC;" parent="cFaB45KztUIKXS-_cTrr-14" vertex="1">
          <mxGeometry x="750" y="1959" width="250" height="48" as="geometry" />
        </mxCell>
        <mxCell id="OfYwudYAJOJ5Hr9kt4Nj-96" value="&lt;span style=&quot;font-size: 30px;&quot;&gt;(姓)&lt;/span&gt;" style="rounded=0;whiteSpace=wrap;html=1;align=right;dashed=1;dashPattern=8 8;verticalAlign=bottom;" parent="cFaB45KztUIKXS-_cTrr-14" vertex="1">
          <mxGeometry x="674" y="1960" width="50" height="46" as="geometry" />
        </mxCell>
        <mxCell id="OfYwudYAJOJ5Hr9kt4Nj-97" value="&lt;span style=&quot;font-size: 30px;&quot;&gt;(名)&lt;/span&gt;" style="rounded=0;whiteSpace=wrap;html=1;align=right;dashed=1;dashPattern=8 8;verticalAlign=bottom;" parent="cFaB45KztUIKXS-_cTrr-14" vertex="1">
          <mxGeometry x="1004" y="1960" width="50" height="46" as="geometry" />
        </mxCell>
        <mxCell id="OfYwudYAJOJ5Hr9kt4Nj-98" value="&lt;span style=&quot;font-size: 30px;&quot;&gt;住所(全)&lt;/span&gt;" style="rounded=0;whiteSpace=wrap;html=1;align=right;dashed=1;dashPattern=8 8;verticalAlign=bottom;" parent="cFaB45KztUIKXS-_cTrr-14" vertex="1">
          <mxGeometry x="90" y="2292" width="310" height="46" as="geometry" />
        </mxCell>
        <mxCell id="OfYwudYAJOJ5Hr9kt4Nj-99" value="&lt;span style=&quot;font-size: 30px;&quot;&gt;山梨県実在市朝靄町&lt;/span&gt;&lt;span style=&quot;font-size: 30px;&quot;&gt;x丁目y番地&amp;nbsp;&lt;/span&gt;&lt;span style=&quot;font-size: 30px;&quot;&gt;zzzabcビル3Fqqq号室&lt;/span&gt;" style="rounded=0;whiteSpace=wrap;html=1;align=left;verticalAlign=top;fillColor=#CCCCCC;" parent="cFaB45KztUIKXS-_cTrr-14" vertex="1">
          <mxGeometry x="420" y="2292" width="850" height="145" as="geometry" />
        </mxCell>
        <mxCell id="OfYwudYAJOJ5Hr9kt4Nj-100" value="&lt;span style=&quot;font-size: 30px;&quot;&gt;代表者住所&lt;/span&gt;" style="rounded=0;whiteSpace=wrap;html=1;align=right;dashed=1;dashPattern=8 8;verticalAlign=bottom;" parent="cFaB45KztUIKXS-_cTrr-14" vertex="1">
          <mxGeometry x="90" y="3055" width="310" height="46" as="geometry" />
        </mxCell>
        <mxCell id="OfYwudYAJOJ5Hr9kt4Nj-101" value="&lt;span style=&quot;font-size: 30px;&quot;&gt;123&lt;br&gt;&lt;/span&gt;" style="rounded=0;whiteSpace=wrap;html=1;align=right;" parent="cFaB45KztUIKXS-_cTrr-14" vertex="1">
          <mxGeometry x="420" y="3117" width="170" height="48" as="geometry" />
        </mxCell>
        <mxCell id="OfYwudYAJOJ5Hr9kt4Nj-102" value="&lt;span style=&quot;font-size: 30px;&quot;&gt;郵便番号&lt;/span&gt;" style="rounded=0;whiteSpace=wrap;html=1;align=right;dashed=1;dashPattern=8 8;verticalAlign=bottom;" parent="cFaB45KztUIKXS-_cTrr-14" vertex="1">
          <mxGeometry x="90" y="3119" width="310" height="46" as="geometry" />
        </mxCell>
        <mxCell id="OfYwudYAJOJ5Hr9kt4Nj-103" value="&lt;span style=&quot;font-size: 30px;&quot;&gt;456x&lt;br&gt;&lt;/span&gt;" style="rounded=0;whiteSpace=wrap;html=1;align=right;" parent="cFaB45KztUIKXS-_cTrr-14" vertex="1">
          <mxGeometry x="650" y="3117" width="170" height="48" as="geometry" />
        </mxCell>
        <mxCell id="OfYwudYAJOJ5Hr9kt4Nj-104" value="&lt;span style=&quot;font-size: 30px;&quot;&gt;住所(郵便番号)&lt;/span&gt;" style="rounded=0;whiteSpace=wrap;html=1;align=right;dashed=1;dashPattern=8 8;verticalAlign=bottom;" parent="cFaB45KztUIKXS-_cTrr-14" vertex="1">
          <mxGeometry x="90" y="3359" width="310" height="46" as="geometry" />
        </mxCell>
        <mxCell id="OfYwudYAJOJ5Hr9kt4Nj-105" value="&lt;span style=&quot;font-size: 30px;&quot;&gt;番地&lt;/span&gt;" style="rounded=0;whiteSpace=wrap;html=1;align=right;dashed=1;dashPattern=8 8;verticalAlign=bottom;" parent="cFaB45KztUIKXS-_cTrr-14" vertex="1">
          <mxGeometry x="90" y="3422" width="310" height="46" as="geometry" />
        </mxCell>
        <mxCell id="OfYwudYAJOJ5Hr9kt4Nj-106" value="&lt;span style=&quot;font-size: 30px;&quot;&gt;建物&lt;/span&gt;" style="rounded=0;whiteSpace=wrap;html=1;align=right;dashed=1;dashPattern=8 8;verticalAlign=bottom;" parent="cFaB45KztUIKXS-_cTrr-14" vertex="1">
          <mxGeometry x="90" y="3484" width="310" height="46" as="geometry" />
        </mxCell>
        <mxCell id="OfYwudYAJOJ5Hr9kt4Nj-107" value="&lt;span style=&quot;font-size: 30px;&quot;&gt;山梨県実在市朝靄町&lt;/span&gt;" style="rounded=0;whiteSpace=wrap;html=1;align=left;" parent="cFaB45KztUIKXS-_cTrr-14" vertex="1">
          <mxGeometry x="420" y="3358" width="550" height="48" as="geometry" />
        </mxCell>
        <mxCell id="OfYwudYAJOJ5Hr9kt4Nj-108" value="&lt;span style=&quot;font-size: 30px;&quot;&gt;x丁目y番地&lt;/span&gt;" style="rounded=0;whiteSpace=wrap;html=1;align=left;" parent="cFaB45KztUIKXS-_cTrr-14" vertex="1">
          <mxGeometry x="420" y="3424" width="550" height="48" as="geometry" />
        </mxCell>
        <mxCell id="OfYwudYAJOJ5Hr9kt4Nj-109" value="&lt;span style=&quot;font-size: 30px;&quot;&gt;zzzabcビル3Fqqq号室&lt;/span&gt;" style="rounded=0;whiteSpace=wrap;html=1;align=left;" parent="cFaB45KztUIKXS-_cTrr-14" vertex="1">
          <mxGeometry x="420" y="3486" width="550" height="48" as="geometry" />
        </mxCell>
        <mxCell id="OfYwudYAJOJ5Hr9kt4Nj-110" value="&lt;span style=&quot;font-size: 30px;&quot;&gt;代表者の氏名&lt;/span&gt;" style="rounded=0;whiteSpace=wrap;html=1;align=right;dashed=1;dashPattern=8 8;verticalAlign=bottom;" parent="cFaB45KztUIKXS-_cTrr-14" vertex="1">
          <mxGeometry x="110" y="2860" width="290" height="46" as="geometry" />
        </mxCell>
        <mxCell id="OfYwudYAJOJ5Hr9kt4Nj-111" value="&lt;span style=&quot;font-size: 30px;&quot;&gt;職務代行者&lt;/span&gt;" style="rounded=0;whiteSpace=wrap;html=1;align=left;" parent="cFaB45KztUIKXS-_cTrr-14" vertex="1">
          <mxGeometry x="420" y="2919" width="250" height="48" as="geometry" />
        </mxCell>
        <mxCell id="OfYwudYAJOJ5Hr9kt4Nj-112" value="&lt;span style=&quot;font-size: 30px;&quot;&gt;－&lt;/span&gt;" style="rounded=0;whiteSpace=wrap;html=1;align=right;dashed=1;dashPattern=8 8;verticalAlign=bottom;" parent="cFaB45KztUIKXS-_cTrr-14" vertex="1">
          <mxGeometry x="601" y="3119" width="40" height="46" as="geometry" />
        </mxCell>
        <mxCell id="OfYwudYAJOJ5Hr9kt4Nj-113" value="&lt;span style=&quot;font-size: 30px;&quot;&gt;生年月日&lt;/span&gt;" style="rounded=0;whiteSpace=wrap;html=1;align=right;dashed=1;dashPattern=8 8;verticalAlign=bottom;" parent="cFaB45KztUIKXS-_cTrr-14" vertex="1">
          <mxGeometry x="90" y="3553" width="310" height="46" as="geometry" />
        </mxCell>
        <mxCell id="OfYwudYAJOJ5Hr9kt4Nj-114" value="&lt;font style=&quot;font-size: 30px;&quot;&gt;20221201&lt;/font&gt;" style="rounded=0;whiteSpace=wrap;html=1;align=right;" parent="cFaB45KztUIKXS-_cTrr-14" vertex="1">
          <mxGeometry x="420" y="3551" width="250" height="48" as="geometry" />
        </mxCell>
        <mxCell id="OfYwudYAJOJ5Hr9kt4Nj-115" value="&lt;span style=&quot;font-size: 30px;&quot;&gt;選任年月日&lt;/span&gt;" style="rounded=0;whiteSpace=wrap;html=1;align=right;dashed=1;dashPattern=8 8;verticalAlign=bottom;" parent="cFaB45KztUIKXS-_cTrr-14" vertex="1">
          <mxGeometry x="90" y="3623" width="310" height="46" as="geometry" />
        </mxCell>
        <mxCell id="OfYwudYAJOJ5Hr9kt4Nj-116" value="&lt;font style=&quot;font-size: 30px;&quot;&gt;20221201&lt;/font&gt;" style="rounded=0;whiteSpace=wrap;html=1;align=right;" parent="cFaB45KztUIKXS-_cTrr-14" vertex="1">
          <mxGeometry x="420" y="3621" width="250" height="48" as="geometry" />
        </mxCell>
        <mxCell id="OfYwudYAJOJ5Hr9kt4Nj-117" value="&lt;span style=&quot;font-size: 30px;&quot;&gt;&lt;b&gt;会計責任者職務代行者の入力項目&lt;/b&gt;&lt;/span&gt;" style="rounded=0;whiteSpace=wrap;html=1;align=left;dashed=1;dashPattern=8 8;verticalAlign=bottom;" parent="cFaB45KztUIKXS-_cTrr-14" vertex="1">
          <mxGeometry x="50" y="2800" width="580" height="46" as="geometry" />
        </mxCell>
        <mxCell id="OfYwudYAJOJ5Hr9kt4Nj-118" value="&lt;span style=&quot;font-size: 30px;&quot;&gt;三郎&lt;/span&gt;" style="rounded=0;whiteSpace=wrap;html=1;align=left;" parent="cFaB45KztUIKXS-_cTrr-14" vertex="1">
          <mxGeometry x="750" y="2919" width="250" height="48" as="geometry" />
        </mxCell>
        <mxCell id="OfYwudYAJOJ5Hr9kt4Nj-119" value="&lt;span style=&quot;font-size: 30px;&quot;&gt;(姓)&lt;/span&gt;" style="rounded=0;whiteSpace=wrap;html=1;align=right;dashed=1;dashPattern=8 8;verticalAlign=bottom;" parent="cFaB45KztUIKXS-_cTrr-14" vertex="1">
          <mxGeometry x="674" y="2920" width="50" height="46" as="geometry" />
        </mxCell>
        <mxCell id="OfYwudYAJOJ5Hr9kt4Nj-120" value="&lt;span style=&quot;font-size: 30px;&quot;&gt;(名)&lt;/span&gt;" style="rounded=0;whiteSpace=wrap;html=1;align=right;dashed=1;dashPattern=8 8;verticalAlign=bottom;" parent="cFaB45KztUIKXS-_cTrr-14" vertex="1">
          <mxGeometry x="1004" y="2920" width="50" height="46" as="geometry" />
        </mxCell>
        <mxCell id="OfYwudYAJOJ5Hr9kt4Nj-121" value="&lt;font style=&quot;font-size: 30px;&quot;&gt;0123&lt;/font&gt;" style="rounded=0;whiteSpace=wrap;html=1;align=right;" parent="cFaB45KztUIKXS-_cTrr-14" vertex="1">
          <mxGeometry x="420" y="2987" width="170" height="48" as="geometry" />
        </mxCell>
        <mxCell id="OfYwudYAJOJ5Hr9kt4Nj-122" value="&lt;span style=&quot;font-size: 30px;&quot;&gt;電話番号&lt;/span&gt;" style="rounded=0;whiteSpace=wrap;html=1;align=right;dashed=1;dashPattern=8 8;verticalAlign=bottom;" parent="cFaB45KztUIKXS-_cTrr-14" vertex="1">
          <mxGeometry x="90" y="2989" width="310" height="46" as="geometry" />
        </mxCell>
        <mxCell id="OfYwudYAJOJ5Hr9kt4Nj-123" value="&lt;span style=&quot;font-size: 30px;&quot;&gt;45&lt;br&gt;&lt;/span&gt;" style="rounded=0;whiteSpace=wrap;html=1;align=right;" parent="cFaB45KztUIKXS-_cTrr-14" vertex="1">
          <mxGeometry x="650" y="2987" width="170" height="48" as="geometry" />
        </mxCell>
        <mxCell id="OfYwudYAJOJ5Hr9kt4Nj-124" value="&lt;span style=&quot;font-size: 30px;&quot;&gt;－&lt;/span&gt;" style="rounded=0;whiteSpace=wrap;html=1;align=right;dashed=1;dashPattern=8 8;verticalAlign=bottom;" parent="cFaB45KztUIKXS-_cTrr-14" vertex="1">
          <mxGeometry x="601" y="2989" width="40" height="46" as="geometry" />
        </mxCell>
        <mxCell id="OfYwudYAJOJ5Hr9kt4Nj-125" value="&lt;span style=&quot;font-size: 30px;&quot;&gt;678z&lt;br&gt;&lt;/span&gt;" style="rounded=0;whiteSpace=wrap;html=1;align=right;" parent="cFaB45KztUIKXS-_cTrr-14" vertex="1">
          <mxGeometry x="890" y="2987" width="170" height="48" as="geometry" />
        </mxCell>
        <mxCell id="OfYwudYAJOJ5Hr9kt4Nj-126" value="&lt;span style=&quot;font-size: 30px;&quot;&gt;－&lt;/span&gt;" style="rounded=0;whiteSpace=wrap;html=1;align=right;dashed=1;dashPattern=8 8;verticalAlign=bottom;" parent="cFaB45KztUIKXS-_cTrr-14" vertex="1">
          <mxGeometry x="841" y="2989" width="40" height="46" as="geometry" />
        </mxCell>
        <mxCell id="OfYwudYAJOJ5Hr9kt4Nj-127" value="" style="rounded=0;whiteSpace=wrap;html=1;align=left;" parent="cFaB45KztUIKXS-_cTrr-14" vertex="1">
          <mxGeometry x="1070" y="2922" width="250" height="48" as="geometry" />
        </mxCell>
        <mxCell id="OfYwudYAJOJ5Hr9kt4Nj-128" value="&lt;span style=&quot;font-size: 30px;&quot;&gt;(ミドルネーム)&lt;/span&gt;" style="rounded=0;whiteSpace=wrap;html=1;align=right;dashed=1;dashPattern=8 8;verticalAlign=bottom;" parent="cFaB45KztUIKXS-_cTrr-14" vertex="1">
          <mxGeometry x="1324" y="2923" width="206" height="46" as="geometry" />
        </mxCell>
        <mxCell id="OfYwudYAJOJ5Hr9kt4Nj-129" value="&lt;span style=&quot;font-size: 30px;&quot;&gt;職務代行者&lt;/span&gt;" style="rounded=0;whiteSpace=wrap;html=1;align=left;fillColor=#CCCCCC;" parent="cFaB45KztUIKXS-_cTrr-14" vertex="1">
          <mxGeometry x="420" y="2859" width="250" height="48" as="geometry" />
        </mxCell>
        <mxCell id="OfYwudYAJOJ5Hr9kt4Nj-130" value="&lt;span style=&quot;font-size: 30px;&quot;&gt;三郎&lt;/span&gt;" style="rounded=0;whiteSpace=wrap;html=1;align=left;fillColor=#CCCCCC;" parent="cFaB45KztUIKXS-_cTrr-14" vertex="1">
          <mxGeometry x="750" y="2859" width="250" height="48" as="geometry" />
        </mxCell>
        <mxCell id="OfYwudYAJOJ5Hr9kt4Nj-131" value="&lt;span style=&quot;font-size: 30px;&quot;&gt;(姓)&lt;/span&gt;" style="rounded=0;whiteSpace=wrap;html=1;align=right;dashed=1;dashPattern=8 8;verticalAlign=bottom;" parent="cFaB45KztUIKXS-_cTrr-14" vertex="1">
          <mxGeometry x="674" y="2860" width="50" height="46" as="geometry" />
        </mxCell>
        <mxCell id="OfYwudYAJOJ5Hr9kt4Nj-132" value="&lt;span style=&quot;font-size: 30px;&quot;&gt;(名)&lt;/span&gt;" style="rounded=0;whiteSpace=wrap;html=1;align=right;dashed=1;dashPattern=8 8;verticalAlign=bottom;" parent="cFaB45KztUIKXS-_cTrr-14" vertex="1">
          <mxGeometry x="1004" y="2860" width="50" height="46" as="geometry" />
        </mxCell>
        <mxCell id="OfYwudYAJOJ5Hr9kt4Nj-133" value="&lt;span style=&quot;font-size: 30px;&quot;&gt;住所(全)&lt;/span&gt;" style="rounded=0;whiteSpace=wrap;html=1;align=right;dashed=1;dashPattern=8 8;verticalAlign=bottom;" parent="cFaB45KztUIKXS-_cTrr-14" vertex="1">
          <mxGeometry x="90" y="3192" width="310" height="46" as="geometry" />
        </mxCell>
        <mxCell id="OfYwudYAJOJ5Hr9kt4Nj-134" value="&lt;span style=&quot;font-size: 30px;&quot;&gt;山梨県実在市朝靄町&lt;/span&gt;&lt;span style=&quot;font-size: 30px;&quot;&gt;x丁目y番地&amp;nbsp;&lt;/span&gt;&lt;span style=&quot;font-size: 30px;&quot;&gt;zzzabcビル3Fqqq号室&lt;/span&gt;" style="rounded=0;whiteSpace=wrap;html=1;align=left;verticalAlign=top;fillColor=#CCCCCC;" parent="cFaB45KztUIKXS-_cTrr-14" vertex="1">
          <mxGeometry x="420" y="3192" width="850" height="145" as="geometry" />
        </mxCell>
        <mxCell id="OfYwudYAJOJ5Hr9kt4Nj-135" value="&lt;span style=&quot;font-size: 30px;&quot;&gt;&lt;b&gt;政治団体に関する項目&lt;/b&gt;&lt;/span&gt;" style="rounded=0;whiteSpace=wrap;html=1;align=left;dashed=1;dashPattern=8 8;verticalAlign=bottom;" parent="cFaB45KztUIKXS-_cTrr-14" vertex="1">
          <mxGeometry x="50" y="3700" width="580" height="46" as="geometry" />
        </mxCell>
        <mxCell id="OfYwudYAJOJ5Hr9kt4Nj-136" value="&lt;span style=&quot;font-size: 30px;&quot;&gt;衆議院または参議院議員の現職または候補者自身が代表者である&lt;/span&gt;" style="rounded=0;whiteSpace=wrap;html=1;align=left;dashed=1;dashPattern=8 8;verticalAlign=bottom;" parent="cFaB45KztUIKXS-_cTrr-14" vertex="1">
          <mxGeometry x="486" y="3760" width="1073" height="46" as="geometry" />
        </mxCell>
        <mxCell id="OfYwudYAJOJ5Hr9kt4Nj-137" value="&lt;span style=&quot;font-size: 30px;&quot;&gt;&lt;br&gt;衆議院または参議院議員の現職または候補者を支援する(代表者が異なる)&lt;/span&gt;" style="rounded=0;whiteSpace=wrap;html=1;align=left;dashed=1;dashPattern=8 8;verticalAlign=bottom;" parent="cFaB45KztUIKXS-_cTrr-14" vertex="1">
          <mxGeometry x="486" y="3840" width="1073" height="40" as="geometry" />
        </mxCell>
        <mxCell id="OfYwudYAJOJ5Hr9kt4Nj-138" value="&lt;span style=&quot;font-size: 30px;&quot;&gt;(政党要件を満たす)政党&lt;/span&gt;" style="rounded=0;whiteSpace=wrap;html=1;align=left;dashed=1;dashPattern=8 8;verticalAlign=bottom;" parent="cFaB45KztUIKXS-_cTrr-14" vertex="1">
          <mxGeometry x="486" y="3910" width="1073" height="46" as="geometry" />
        </mxCell>
        <mxCell id="OfYwudYAJOJ5Hr9kt4Nj-139" value="&lt;span style=&quot;font-size: 30px;&quot;&gt;政党支部&lt;/span&gt;" style="rounded=0;whiteSpace=wrap;html=1;align=left;dashed=1;dashPattern=8 8;verticalAlign=bottom;" parent="cFaB45KztUIKXS-_cTrr-14" vertex="1">
          <mxGeometry x="486" y="3990" width="303" height="46" as="geometry" />
        </mxCell>
        <mxCell id="OfYwudYAJOJ5Hr9kt4Nj-140" value="&lt;font style=&quot;font-size: 84px;&quot;&gt;○&lt;/font&gt;" style="text;html=1;strokeColor=none;fillColor=none;align=center;verticalAlign=middle;whiteSpace=wrap;rounded=0;fontSize=60;" parent="cFaB45KztUIKXS-_cTrr-14" vertex="1">
          <mxGeometry x="423" y="3768" width="60" height="30" as="geometry" />
        </mxCell>
        <mxCell id="OfYwudYAJOJ5Hr9kt4Nj-141" value="&lt;font style=&quot;font-size: 48px;&quot;&gt;●&lt;/font&gt;" style="text;html=1;strokeColor=none;fillColor=none;align=center;verticalAlign=middle;whiteSpace=wrap;rounded=0;fontSize=48;" parent="cFaB45KztUIKXS-_cTrr-14" vertex="1">
          <mxGeometry x="423" y="3770" width="60" height="30" as="geometry" />
        </mxCell>
        <mxCell id="OfYwudYAJOJ5Hr9kt4Nj-142" value="&lt;font style=&quot;font-size: 84px;&quot;&gt;○&lt;/font&gt;" style="text;html=1;strokeColor=none;fillColor=none;align=center;verticalAlign=middle;whiteSpace=wrap;rounded=0;fontSize=60;" parent="cFaB45KztUIKXS-_cTrr-14" vertex="1">
          <mxGeometry x="423" y="3838" width="60" height="30" as="geometry" />
        </mxCell>
        <mxCell id="OfYwudYAJOJ5Hr9kt4Nj-143" value="&lt;font style=&quot;font-size: 84px;&quot;&gt;○&lt;/font&gt;" style="text;html=1;strokeColor=none;fillColor=none;align=center;verticalAlign=middle;whiteSpace=wrap;rounded=0;fontSize=60;" parent="cFaB45KztUIKXS-_cTrr-14" vertex="1">
          <mxGeometry x="423" y="3918" width="60" height="30" as="geometry" />
        </mxCell>
        <mxCell id="OfYwudYAJOJ5Hr9kt4Nj-144" value="&lt;font style=&quot;font-size: 84px;&quot;&gt;○&lt;/font&gt;" style="text;html=1;strokeColor=none;fillColor=none;align=center;verticalAlign=middle;whiteSpace=wrap;rounded=0;fontSize=60;" parent="cFaB45KztUIKXS-_cTrr-14" vertex="1">
          <mxGeometry x="423" y="3989" width="60" height="30" as="geometry" />
        </mxCell>
        <mxCell id="OfYwudYAJOJ5Hr9kt4Nj-145" value="&lt;span style=&quot;font-size: 30px;&quot;&gt;▼本部である政党を選択&lt;/span&gt;" style="rounded=0;whiteSpace=wrap;html=1;align=left;fillColor=#FFFFFF;" parent="cFaB45KztUIKXS-_cTrr-14" vertex="1">
          <mxGeometry x="809" y="3990" width="390" height="48" as="geometry" />
        </mxCell>
        <mxCell id="OfYwudYAJOJ5Hr9kt4Nj-146" value="&lt;font style=&quot;font-size: 30px;&quot;&gt;選択肢がないので自由記述&lt;/font&gt;" style="rounded=0;whiteSpace=wrap;html=1;align=left;" parent="cFaB45KztUIKXS-_cTrr-14" vertex="1">
          <mxGeometry x="440" y="4052" width="850" height="48" as="geometry" />
        </mxCell>
        <mxCell id="OfYwudYAJOJ5Hr9kt4Nj-147" value="&lt;span style=&quot;font-size: 30px;&quot;&gt;地方自治体首長、衆議院または参議院以外の議会の現職または候補者&lt;/span&gt;" style="rounded=0;whiteSpace=wrap;html=1;align=left;dashed=1;dashPattern=8 8;verticalAlign=bottom;" parent="cFaB45KztUIKXS-_cTrr-14" vertex="1">
          <mxGeometry x="486" y="4123" width="1013" height="46" as="geometry" />
        </mxCell>
        <mxCell id="OfYwudYAJOJ5Hr9kt4Nj-148" value="&lt;font style=&quot;font-size: 84px;&quot;&gt;○&lt;/font&gt;" style="text;html=1;strokeColor=none;fillColor=none;align=center;verticalAlign=middle;whiteSpace=wrap;rounded=0;fontSize=60;" parent="cFaB45KztUIKXS-_cTrr-14" vertex="1">
          <mxGeometry x="423" y="4128" width="60" height="30" as="geometry" />
        </mxCell>
        <mxCell id="OfYwudYAJOJ5Hr9kt4Nj-149" value="&lt;span style=&quot;font-size: 30px;&quot;&gt;候補者・現職は存在しないが&lt;br&gt;特定パーティの収益が10,000,000円以上ある場合&lt;/span&gt;" style="rounded=0;whiteSpace=wrap;html=1;align=left;dashed=1;dashPattern=8 8;verticalAlign=bottom;" parent="cFaB45KztUIKXS-_cTrr-14" vertex="1">
          <mxGeometry x="489" y="4188" width="1072" height="79" as="geometry" />
        </mxCell>
        <mxCell id="OfYwudYAJOJ5Hr9kt4Nj-150" value="&lt;font style=&quot;font-size: 84px;&quot;&gt;○&lt;/font&gt;" style="text;html=1;strokeColor=none;fillColor=none;align=center;verticalAlign=middle;whiteSpace=wrap;rounded=0;fontSize=60;" parent="cFaB45KztUIKXS-_cTrr-14" vertex="1">
          <mxGeometry x="423" y="4208" width="60" height="30" as="geometry" />
        </mxCell>
        <mxCell id="OfYwudYAJOJ5Hr9kt4Nj-151" value="&lt;span style=&quot;font-size: 30px;&quot;&gt;その他の政治団体&lt;/span&gt;" style="rounded=0;whiteSpace=wrap;html=1;align=left;dashed=1;dashPattern=8 8;verticalAlign=bottom;" parent="cFaB45KztUIKXS-_cTrr-14" vertex="1">
          <mxGeometry x="487" y="4281" width="1073" height="46" as="geometry" />
        </mxCell>
        <mxCell id="OfYwudYAJOJ5Hr9kt4Nj-152" value="&lt;font style=&quot;font-size: 84px;&quot;&gt;○&lt;/font&gt;" style="text;html=1;strokeColor=none;fillColor=none;align=center;verticalAlign=middle;whiteSpace=wrap;rounded=0;fontSize=60;" parent="cFaB45KztUIKXS-_cTrr-14" vertex="1">
          <mxGeometry x="424" y="4278" width="60" height="30" as="geometry" />
        </mxCell>
        <mxCell id="OfYwudYAJOJ5Hr9kt4Nj-153" value="&lt;span style=&quot;font-size: 30px;&quot;&gt;政治団体支部&lt;/span&gt;" style="rounded=0;whiteSpace=wrap;html=1;align=left;dashed=1;dashPattern=8 8;verticalAlign=bottom;" parent="cFaB45KztUIKXS-_cTrr-14" vertex="1">
          <mxGeometry x="486" y="4350" width="303" height="46" as="geometry" />
        </mxCell>
        <mxCell id="OfYwudYAJOJ5Hr9kt4Nj-154" value="&lt;font style=&quot;font-size: 84px;&quot;&gt;○&lt;/font&gt;" style="text;html=1;strokeColor=none;fillColor=none;align=center;verticalAlign=middle;whiteSpace=wrap;rounded=0;fontSize=60;" parent="cFaB45KztUIKXS-_cTrr-14" vertex="1">
          <mxGeometry x="423" y="4349" width="60" height="30" as="geometry" />
        </mxCell>
        <mxCell id="OfYwudYAJOJ5Hr9kt4Nj-156" value="&lt;font style=&quot;font-size: 30px;&quot;&gt;選択肢がないので自由記述&lt;/font&gt;" style="rounded=0;whiteSpace=wrap;html=1;align=left;" parent="cFaB45KztUIKXS-_cTrr-14" vertex="1">
          <mxGeometry x="479" y="4417" width="781" height="48" as="geometry" />
        </mxCell>
        <mxCell id="OfYwudYAJOJ5Hr9kt4Nj-159" value="&lt;font style=&quot;font-size: 30px;&quot;&gt;政治資金規正法第18条の２&lt;br/&gt;第１項の規定による政治団体&lt;/font&gt;" style="rounded=0;whiteSpace=wrap;html=1;align=left;fillColor=#CCCCCC;fontColor=#333333;strokeColor=#000000;verticalAlign=top;" parent="cFaB45KztUIKXS-_cTrr-14" vertex="1">
          <mxGeometry x="60" y="3836" width="290" height="184" as="geometry" />
        </mxCell>
        <mxCell id="OfYwudYAJOJ5Hr9kt4Nj-161" value="&lt;span style=&quot;font-size: 30px;&quot;&gt;該当しません&lt;/span&gt;" style="rounded=0;whiteSpace=wrap;html=1;align=left;fillColor=#CCCCCC;fontColor=#333333;strokeColor=#000000;verticalAlign=top;" parent="cFaB45KztUIKXS-_cTrr-14" vertex="1">
          <mxGeometry x="60" y="4186" width="290" height="184" as="geometry" />
        </mxCell>
        <mxCell id="OfYwudYAJOJ5Hr9kt4Nj-164" value="&lt;span style=&quot;font-size: 30px;&quot;&gt;国会議員&lt;/span&gt;" style="rounded=0;whiteSpace=wrap;html=1;align=left;" parent="cFaB45KztUIKXS-_cTrr-14" vertex="1">
          <mxGeometry x="430" y="4869" width="250" height="48" as="geometry" />
        </mxCell>
        <mxCell id="OfYwudYAJOJ5Hr9kt4Nj-165" value="&lt;span style=&quot;font-size: 30px;&quot;&gt;あゆみ&lt;/span&gt;" style="rounded=0;whiteSpace=wrap;html=1;align=left;" parent="cFaB45KztUIKXS-_cTrr-14" vertex="1">
          <mxGeometry x="760" y="4869" width="250" height="48" as="geometry" />
        </mxCell>
        <mxCell id="OfYwudYAJOJ5Hr9kt4Nj-166" value="&lt;span style=&quot;font-size: 30px;&quot;&gt;(姓)&lt;/span&gt;" style="rounded=0;whiteSpace=wrap;html=1;align=right;dashed=1;dashPattern=8 8;verticalAlign=bottom;" parent="cFaB45KztUIKXS-_cTrr-14" vertex="1">
          <mxGeometry x="684" y="4870" width="50" height="46" as="geometry" />
        </mxCell>
        <mxCell id="OfYwudYAJOJ5Hr9kt4Nj-167" value="&lt;span style=&quot;font-size: 30px;&quot;&gt;(名)&lt;/span&gt;" style="rounded=0;whiteSpace=wrap;html=1;align=right;dashed=1;dashPattern=8 8;verticalAlign=bottom;" parent="cFaB45KztUIKXS-_cTrr-14" vertex="1">
          <mxGeometry x="1014" y="4870" width="50" height="46" as="geometry" />
        </mxCell>
        <mxCell id="OfYwudYAJOJ5Hr9kt4Nj-168" value="" style="rounded=0;whiteSpace=wrap;html=1;align=left;" parent="cFaB45KztUIKXS-_cTrr-14" vertex="1">
          <mxGeometry x="1080" y="4872" width="250" height="48" as="geometry" />
        </mxCell>
        <mxCell id="OfYwudYAJOJ5Hr9kt4Nj-169" value="&lt;span style=&quot;font-size: 30px;&quot;&gt;(ミドルネーム)&lt;/span&gt;" style="rounded=0;whiteSpace=wrap;html=1;align=right;dashed=1;dashPattern=8 8;verticalAlign=bottom;" parent="cFaB45KztUIKXS-_cTrr-14" vertex="1">
          <mxGeometry x="1334" y="4873" width="206" height="46" as="geometry" />
        </mxCell>
        <mxCell id="OfYwudYAJOJ5Hr9kt4Nj-170" value="&lt;span style=&quot;font-size: 30px;&quot;&gt;国会議員&lt;/span&gt;" style="rounded=0;whiteSpace=wrap;html=1;align=left;fillColor=#CCCCCC;" parent="cFaB45KztUIKXS-_cTrr-14" vertex="1">
          <mxGeometry x="430" y="4809" width="250" height="48" as="geometry" />
        </mxCell>
        <mxCell id="OfYwudYAJOJ5Hr9kt4Nj-171" value="&lt;span style=&quot;font-size: 30px;&quot;&gt;あゆみ&lt;/span&gt;" style="rounded=0;whiteSpace=wrap;html=1;align=left;fillColor=#CCCCCC;" parent="cFaB45KztUIKXS-_cTrr-14" vertex="1">
          <mxGeometry x="760" y="4809" width="250" height="48" as="geometry" />
        </mxCell>
        <mxCell id="OfYwudYAJOJ5Hr9kt4Nj-172" value="&lt;span style=&quot;font-size: 30px;&quot;&gt;(姓)&lt;/span&gt;" style="rounded=0;whiteSpace=wrap;html=1;align=right;dashed=1;dashPattern=8 8;verticalAlign=bottom;" parent="cFaB45KztUIKXS-_cTrr-14" vertex="1">
          <mxGeometry x="684" y="4810" width="50" height="46" as="geometry" />
        </mxCell>
        <mxCell id="OfYwudYAJOJ5Hr9kt4Nj-173" value="&lt;span style=&quot;font-size: 30px;&quot;&gt;(名)&lt;/span&gt;" style="rounded=0;whiteSpace=wrap;html=1;align=right;dashed=1;dashPattern=8 8;verticalAlign=bottom;" parent="cFaB45KztUIKXS-_cTrr-14" vertex="1">
          <mxGeometry x="1014" y="4810" width="50" height="46" as="geometry" />
        </mxCell>
        <mxCell id="OfYwudYAJOJ5Hr9kt4Nj-174" value="&lt;span style=&quot;font-size: 30px;&quot;&gt;検索して指定&lt;/span&gt;" style="rounded=1;whiteSpace=wrap;html=1;" parent="cFaB45KztUIKXS-_cTrr-14" vertex="1">
          <mxGeometry x="1583" y="4869" width="210" height="60" as="geometry" />
        </mxCell>
        <mxCell id="OfYwudYAJOJ5Hr9kt4Nj-176" value="&lt;span style=&quot;font-size: 30px;&quot;&gt;政治団体区分&lt;/span&gt;" style="rounded=0;whiteSpace=wrap;html=1;align=right;dashed=1;dashPattern=8 8;verticalAlign=bottom;" parent="cFaB45KztUIKXS-_cTrr-14" vertex="1">
          <mxGeometry x="90" y="3773" width="310" height="46" as="geometry" />
        </mxCell>
        <mxCell id="OfYwudYAJOJ5Hr9kt4Nj-177" value="&lt;span style=&quot;font-size: 30px;&quot;&gt;団体国会議員区分&lt;/span&gt;" style="rounded=0;whiteSpace=wrap;html=1;align=right;dashed=1;dashPattern=8 8;verticalAlign=bottom;" parent="cFaB45KztUIKXS-_cTrr-14" vertex="1">
          <mxGeometry x="90" y="4123" width="310" height="46" as="geometry" />
        </mxCell>
        <mxCell id="OfYwudYAJOJ5Hr9kt4Nj-178" value="&lt;span style=&quot;font-size: 30px;&quot;&gt;国会議員指定&lt;/span&gt;" style="rounded=0;whiteSpace=wrap;html=1;align=right;dashed=1;dashPattern=8 8;verticalAlign=bottom;" parent="cFaB45KztUIKXS-_cTrr-14" vertex="1">
          <mxGeometry x="90" y="4813" width="310" height="46" as="geometry" />
        </mxCell>
        <mxCell id="OfYwudYAJOJ5Hr9kt4Nj-179" value="&lt;span style=&quot;font-size: 30px;&quot;&gt;公職区分&lt;/span&gt;" style="rounded=0;whiteSpace=wrap;html=1;align=right;dashed=1;dashPattern=8 8;verticalAlign=bottom;" parent="cFaB45KztUIKXS-_cTrr-14" vertex="1">
          <mxGeometry x="90" y="4953" width="310" height="46" as="geometry" />
        </mxCell>
        <mxCell id="OfYwudYAJOJ5Hr9kt4Nj-180" value="&lt;span style=&quot;font-size: 30px;&quot;&gt;現職&lt;/span&gt;" style="rounded=0;whiteSpace=wrap;html=1;align=left;dashed=1;dashPattern=8 8;verticalAlign=bottom;" parent="cFaB45KztUIKXS-_cTrr-14" vertex="1">
          <mxGeometry x="486" y="4950" width="594" height="46" as="geometry" />
        </mxCell>
        <mxCell id="OfYwudYAJOJ5Hr9kt4Nj-181" value="&lt;span style=&quot;font-size: 30px;&quot;&gt;候補者&lt;/span&gt;" style="rounded=0;whiteSpace=wrap;html=1;align=left;dashed=1;dashPattern=8 8;verticalAlign=bottom;" parent="cFaB45KztUIKXS-_cTrr-14" vertex="1">
          <mxGeometry x="486" y="5030" width="594" height="40" as="geometry" />
        </mxCell>
        <mxCell id="OfYwudYAJOJ5Hr9kt4Nj-182" value="&lt;font style=&quot;font-size: 84px;&quot;&gt;○&lt;/font&gt;" style="text;html=1;strokeColor=none;fillColor=none;align=center;verticalAlign=middle;whiteSpace=wrap;rounded=0;fontSize=60;" parent="cFaB45KztUIKXS-_cTrr-14" vertex="1">
          <mxGeometry x="423" y="4958" width="60" height="30" as="geometry" />
        </mxCell>
        <mxCell id="OfYwudYAJOJ5Hr9kt4Nj-183" value="&lt;font style=&quot;font-size: 48px;&quot;&gt;●&lt;/font&gt;" style="text;html=1;strokeColor=none;fillColor=none;align=center;verticalAlign=middle;whiteSpace=wrap;rounded=0;fontSize=48;" parent="cFaB45KztUIKXS-_cTrr-14" vertex="1">
          <mxGeometry x="423" y="4960" width="60" height="30" as="geometry" />
        </mxCell>
        <mxCell id="OfYwudYAJOJ5Hr9kt4Nj-184" value="&lt;font style=&quot;font-size: 84px;&quot;&gt;○&lt;/font&gt;" style="text;html=1;strokeColor=none;fillColor=none;align=center;verticalAlign=middle;whiteSpace=wrap;rounded=0;fontSize=60;" parent="cFaB45KztUIKXS-_cTrr-14" vertex="1">
          <mxGeometry x="423" y="5028" width="60" height="30" as="geometry" />
        </mxCell>
        <mxCell id="OfYwudYAJOJ5Hr9kt4Nj-185" value="&lt;span style=&quot;font-size: 30px;&quot;&gt;0123&lt;/span&gt;" style="rounded=0;whiteSpace=wrap;html=1;align=left;fillColor=#CCCCCC;" parent="cFaB45KztUIKXS-_cTrr-14" vertex="1">
          <mxGeometry x="820" y="4349" width="190" height="48" as="geometry" />
        </mxCell>
        <mxCell id="OfYwudYAJOJ5Hr9kt4Nj-186" value="&lt;span style=&quot;font-size: 30px;&quot;&gt;ちゃらんぽらん政治団体&lt;/span&gt;" style="rounded=0;whiteSpace=wrap;html=1;align=left;fillColor=#CCCCCC;" parent="cFaB45KztUIKXS-_cTrr-14" vertex="1">
          <mxGeometry x="1040" y="4350" width="410" height="48" as="geometry" />
        </mxCell>
        <mxCell id="OfYwudYAJOJ5Hr9kt4Nj-187" value="&lt;span style=&quot;font-size: 30px;&quot;&gt;検索して指定&lt;/span&gt;" style="rounded=1;whiteSpace=wrap;html=1;" parent="cFaB45KztUIKXS-_cTrr-14" vertex="1">
          <mxGeometry x="1473" y="4347" width="210" height="60" as="geometry" />
        </mxCell>
        <mxCell id="OfYwudYAJOJ5Hr9kt4Nj-188" value="&lt;span style=&quot;font-size: 30px;&quot;&gt;支部の有無&lt;/span&gt;" style="rounded=0;whiteSpace=wrap;html=1;align=right;dashed=1;dashPattern=8 8;verticalAlign=bottom;" parent="cFaB45KztUIKXS-_cTrr-14" vertex="1">
          <mxGeometry x="110" y="4490" width="290" height="46" as="geometry" />
        </mxCell>
        <mxCell id="OfYwudYAJOJ5Hr9kt4Nj-189" value="&lt;font style=&quot;font-size: 84px;&quot;&gt;○&lt;/font&gt;" style="text;html=1;strokeColor=none;fillColor=none;align=center;verticalAlign=middle;whiteSpace=wrap;rounded=0;fontSize=60;" parent="cFaB45KztUIKXS-_cTrr-14" vertex="1">
          <mxGeometry x="420" y="4498" width="60" height="30" as="geometry" />
        </mxCell>
        <mxCell id="OfYwudYAJOJ5Hr9kt4Nj-190" value="&lt;font style=&quot;font-size: 48px;&quot;&gt;●&lt;/font&gt;" style="text;html=1;strokeColor=none;fillColor=none;align=center;verticalAlign=middle;whiteSpace=wrap;rounded=0;fontSize=48;" parent="cFaB45KztUIKXS-_cTrr-14" vertex="1">
          <mxGeometry x="420" y="4500" width="60" height="30" as="geometry" />
        </mxCell>
        <mxCell id="OfYwudYAJOJ5Hr9kt4Nj-191" value="&lt;span style=&quot;font-size: 30px;&quot;&gt;有&lt;br&gt;&lt;/span&gt;" style="text;html=1;strokeColor=none;fillColor=none;align=left;verticalAlign=middle;whiteSpace=wrap;rounded=0;" parent="cFaB45KztUIKXS-_cTrr-14" vertex="1">
          <mxGeometry x="479" y="4491" width="275" height="60" as="geometry" />
        </mxCell>
        <mxCell id="OfYwudYAJOJ5Hr9kt4Nj-192" value="&lt;font style=&quot;font-size: 84px;&quot;&gt;○&lt;/font&gt;" style="text;html=1;strokeColor=none;fillColor=none;align=center;verticalAlign=middle;whiteSpace=wrap;rounded=0;fontSize=60;" parent="cFaB45KztUIKXS-_cTrr-14" vertex="1">
          <mxGeometry x="529" y="4500" width="60" height="30" as="geometry" />
        </mxCell>
        <mxCell id="OfYwudYAJOJ5Hr9kt4Nj-193" value="&lt;span style=&quot;font-size: 30px;&quot;&gt;無&lt;br&gt;&lt;/span&gt;" style="text;html=1;strokeColor=none;fillColor=none;align=left;verticalAlign=middle;whiteSpace=wrap;rounded=0;" parent="cFaB45KztUIKXS-_cTrr-14" vertex="1">
          <mxGeometry x="590" y="4497" width="275" height="56" as="geometry" />
        </mxCell>
        <mxCell id="OfYwudYAJOJ5Hr9kt4Nj-194" value="&lt;font style=&quot;font-size: 30px;&quot;&gt;課税上の優遇措置の適用関係&lt;/font&gt;" style="rounded=0;whiteSpace=wrap;html=1;align=right;dashed=1;dashPattern=8 8;verticalAlign=bottom;" parent="cFaB45KztUIKXS-_cTrr-14" vertex="1">
          <mxGeometry x="110" y="4556" width="290" height="80" as="geometry" />
        </mxCell>
        <mxCell id="OfYwudYAJOJ5Hr9kt4Nj-195" value="&lt;font style=&quot;font-size: 84px;&quot;&gt;○&lt;/font&gt;" style="text;html=1;strokeColor=none;fillColor=none;align=center;verticalAlign=middle;whiteSpace=wrap;rounded=0;fontSize=60;" parent="cFaB45KztUIKXS-_cTrr-14" vertex="1">
          <mxGeometry x="420" y="4578" width="60" height="30" as="geometry" />
        </mxCell>
        <mxCell id="OfYwudYAJOJ5Hr9kt4Nj-196" value="&lt;font style=&quot;font-size: 48px;&quot;&gt;●&lt;/font&gt;" style="text;html=1;strokeColor=none;fillColor=none;align=center;verticalAlign=middle;whiteSpace=wrap;rounded=0;fontSize=48;" parent="cFaB45KztUIKXS-_cTrr-14" vertex="1">
          <mxGeometry x="420" y="4579" width="60" height="30" as="geometry" />
        </mxCell>
        <mxCell id="OfYwudYAJOJ5Hr9kt4Nj-197" value="&lt;font style=&quot;font-size: 84px;&quot;&gt;○&lt;/font&gt;" style="text;html=1;strokeColor=none;fillColor=none;align=center;verticalAlign=middle;whiteSpace=wrap;rounded=0;fontSize=60;" parent="cFaB45KztUIKXS-_cTrr-14" vertex="1">
          <mxGeometry x="530" y="4578" width="60" height="30" as="geometry" />
        </mxCell>
        <mxCell id="OfYwudYAJOJ5Hr9kt4Nj-198" value="&lt;span style=&quot;font-size: 30px;&quot;&gt;無&lt;br&gt;&lt;/span&gt;" style="text;html=1;strokeColor=none;fillColor=none;align=left;verticalAlign=middle;whiteSpace=wrap;rounded=0;" parent="cFaB45KztUIKXS-_cTrr-14" vertex="1">
          <mxGeometry x="590" y="4569" width="275" height="60" as="geometry" />
        </mxCell>
        <mxCell id="OfYwudYAJOJ5Hr9kt4Nj-199" value="&lt;span style=&quot;font-size: 30px;&quot;&gt;有&lt;br&gt;&lt;/span&gt;" style="text;html=1;strokeColor=none;fillColor=none;align=left;verticalAlign=middle;whiteSpace=wrap;rounded=0;" parent="cFaB45KztUIKXS-_cTrr-14" vertex="1">
          <mxGeometry x="480" y="4569" width="275" height="60" as="geometry" />
        </mxCell>
        <mxCell id="OfYwudYAJOJ5Hr9kt4Nj-200" value="&lt;font style=&quot;font-size: 30px;&quot;&gt;主たる活動区域&lt;/font&gt;" style="rounded=0;whiteSpace=wrap;html=1;align=right;dashed=1;dashPattern=8 8;verticalAlign=bottom;" parent="cFaB45KztUIKXS-_cTrr-14" vertex="1">
          <mxGeometry x="66" y="4676" width="340" height="35" as="geometry" />
        </mxCell>
        <mxCell id="OfYwudYAJOJ5Hr9kt4Nj-201" value="&lt;font style=&quot;font-size: 84px;&quot;&gt;○&lt;/font&gt;" style="text;html=1;strokeColor=none;fillColor=none;align=center;verticalAlign=middle;whiteSpace=wrap;rounded=0;fontSize=60;" parent="cFaB45KztUIKXS-_cTrr-14" vertex="1">
          <mxGeometry x="418" y="4665" width="60" height="30" as="geometry" />
        </mxCell>
        <mxCell id="OfYwudYAJOJ5Hr9kt4Nj-202" value="&lt;font style=&quot;font-size: 48px;&quot;&gt;●&lt;/font&gt;" style="text;html=1;strokeColor=none;fillColor=none;align=center;verticalAlign=middle;whiteSpace=wrap;rounded=0;fontSize=48;" parent="cFaB45KztUIKXS-_cTrr-14" vertex="1">
          <mxGeometry x="418" y="4667" width="60" height="30" as="geometry" />
        </mxCell>
        <mxCell id="OfYwudYAJOJ5Hr9kt4Nj-203" value="&lt;font style=&quot;font-size: 84px;&quot;&gt;○&lt;/font&gt;" style="text;html=1;strokeColor=none;fillColor=none;align=center;verticalAlign=middle;whiteSpace=wrap;rounded=0;fontSize=60;" parent="cFaB45KztUIKXS-_cTrr-14" vertex="1">
          <mxGeometry x="838" y="4665" width="60" height="30" as="geometry" />
        </mxCell>
        <mxCell id="OfYwudYAJOJ5Hr9kt4Nj-204" value="&lt;font style=&quot;font-size: 30px;&quot;&gt;同一の都道府県の区域内&lt;/font&gt;" style="text;html=1;strokeColor=none;fillColor=none;align=left;verticalAlign=middle;whiteSpace=wrap;rounded=0;" parent="cFaB45KztUIKXS-_cTrr-14" vertex="1">
          <mxGeometry x="893" y="4657" width="347" height="60" as="geometry" />
        </mxCell>
        <mxCell id="OfYwudYAJOJ5Hr9kt4Nj-205" value="&lt;span style=&quot;font-size: 30px;&quot;&gt;2以上の都道府県の区域等&lt;br&gt;&lt;/span&gt;" style="text;html=1;strokeColor=none;fillColor=none;align=left;verticalAlign=middle;whiteSpace=wrap;rounded=0;" parent="cFaB45KztUIKXS-_cTrr-14" vertex="1">
          <mxGeometry x="468" y="4656" width="382" height="60" as="geometry" />
        </mxCell>
        <mxCell id="OfYwudYAJOJ5Hr9kt4Nj-206" value="&lt;span style=&quot;font-size: 30px;&quot;&gt;山梨県実在市選挙区内&lt;/span&gt;" style="rounded=0;whiteSpace=wrap;html=1;align=left;" parent="cFaB45KztUIKXS-_cTrr-14" vertex="1">
          <mxGeometry x="429" y="4727" width="781" height="48" as="geometry" />
        </mxCell>
        <mxCell id="OfYwudYAJOJ5Hr9kt4Nj-207" value="&lt;span style=&quot;font-size: 30px;&quot;&gt;設立届には必要ないが政治資金収支報告書に必要となる項目もあわせて入力する&lt;/span&gt;&lt;div&gt;&lt;span style=&quot;font-size: 30px;&quot;&gt;(入力内容を保持したまま別ページに遷移)&lt;/span&gt;&lt;/div&gt;" style="rounded=1;whiteSpace=wrap;html=1;" parent="cFaB45KztUIKXS-_cTrr-14" vertex="1">
          <mxGeometry x="90" y="5279" width="1150" height="101" as="geometry" />
        </mxCell>
        <mxCell id="OfYwudYAJOJ5Hr9kt4Nj-208" value="&lt;span style=&quot;font-size: 30px;&quot;&gt;資金管理団体の場合は選挙区を明記&lt;/span&gt;" style="rounded=0;whiteSpace=wrap;html=1;align=right;dashed=1;dashPattern=8 8;verticalAlign=bottom;" parent="cFaB45KztUIKXS-_cTrr-14" vertex="1">
          <mxGeometry x="90" y="5093" width="310" height="97" as="geometry" />
        </mxCell>
        <mxCell id="OfYwudYAJOJ5Hr9kt4Nj-210" value="&lt;span style=&quot;font-size: 30px;&quot;&gt;山梨県議会実在市選挙区&lt;/span&gt;" style="rounded=0;whiteSpace=wrap;html=1;align=left;dashed=1;dashPattern=8 8;verticalAlign=bottom;fillColor=#CCCCCC;" parent="cFaB45KztUIKXS-_cTrr-14" vertex="1">
          <mxGeometry x="436" y="5100" width="594" height="46" as="geometry" />
        </mxCell>
        <mxCell id="OfYwudYAJOJ5Hr9kt4Nj-211" value="&lt;span style=&quot;font-size: 30px;&quot;&gt;112233&lt;/span&gt;" style="rounded=0;whiteSpace=wrap;html=1;align=left;fillColor=#CCCCCC;" parent="cFaB45KztUIKXS-_cTrr-14" vertex="1">
          <mxGeometry x="430" y="5169" width="190" height="48" as="geometry" />
        </mxCell>
        <mxCell id="OfYwudYAJOJ5Hr9kt4Nj-212" value="&lt;span style=&quot;font-size: 30px;&quot;&gt;山梨県議会実在市選挙区&lt;/span&gt;" style="rounded=0;whiteSpace=wrap;html=1;align=left;fillColor=#CCCCCC;" parent="cFaB45KztUIKXS-_cTrr-14" vertex="1">
          <mxGeometry x="650" y="5171" width="410" height="48" as="geometry" />
        </mxCell>
        <mxCell id="OfYwudYAJOJ5Hr9kt4Nj-213" value="&lt;span style=&quot;font-size: 30px;&quot;&gt;検索して指定&lt;/span&gt;" style="rounded=1;whiteSpace=wrap;html=1;" parent="cFaB45KztUIKXS-_cTrr-14" vertex="1">
          <mxGeometry x="1083" y="5167" width="210" height="60" as="geometry" />
        </mxCell>
      </root>
    </mxGraphModel>
  </diagram>
</mxfile>
